<?xml version="1.0" encoding="utf-8"?>
<!-- Generator: Adobe Illustrator 25.4.1, SVG Export Plug-In . SVG Version: 6.00 Build 0)  -->
<svg version="1.1"
	 id="svg3" sodipodi:docname="ultrasecreto.svg" xmlns:cc="http://creativecommons.org/ns#" xmlns:dc="http://purl.org/dc/elements/1.1/" xmlns:inkscape="http://www.inkscape.org/namespaces/inkscape" xmlns:rdf="http://www.w3.org/1999/02/22-rdf-syntax-ns#" xmlns:sodipodi="http://sodipodi.sourceforge.net/DTD/sodipodi-0.dtd" xmlns:svg="http://www.w3.org/2000/svg"
	 xmlns="http://www.w3.org/2000/svg" xmlns:xlink="http://www.w3.org/1999/xlink" x="0px" y="0px" viewBox="0 0 522.8 95.5"
	 style="enable-background:new 0 0 522.8 95.5;" xml:space="preserve">
<style type="text/css">
	.st0{fill:#E1C18F;}
</style>
<sodipodi:namedview  bordercolor="#666666" borderopacity="1" gridtolerance="10" guidetolerance="10" id="namedview5" inkscape:current-layer="svg3" inkscape:cx="195.52613" inkscape:cy="-25.076779" inkscape:pageopacity="0" inkscape:pageshadow="2" inkscape:window-height="705" inkscape:window-maximized="1" inkscape:window-width="1366" inkscape:window-x="-8" inkscape:window-y="-8" inkscape:zoom="1.1160822" objecttolerance="10" pagecolor="#ffffff" showgrid="false">
	</sodipodi:namedview>
<path id="ultrasecreto" class="st0" d="M80.4,32.2v0.1l0.5,0.9l-0.1,1.2v0.2l0.3,0.3c0.3,0,0.6-0.3,0.9-0.8h0.2l0.1,0.1l-0.2,0.5
	l0.2,0.4v0.1l-0.7-0.1c-0.8,0.3-1.2,0.5-1.2,0.8v0.1l0.5,1.1c2.4-0.1,4.8-0.3,7.1-0.8l0.1,0.4l2.1-0.2l9-0.3c1.9,0,3.8-0.4,5.5-1.2
	h0.1l-0.2,0.7V36l0.7-0.1l6-0.2h0.2c1.2-0.1,2.2-0.5,3.1-1.2l-0.6-0.9l0.8-0.3c0.3,0.3,0.8,0.6,1.2,0.5l-0.1,0.6l0.1,0.8l0.2,0.2
	h0.3c0.5,0,1-0.1,1.4-0.3l0.7,0.2v-0.1l0.1-0.1v-0.5c-0.1-0.8-0.2-1.2-0.5-1.2c0.3-0.5,0.4-1.1,0.3-1.7l-0.3-1.1l-0.6,0.1l-3.9,1.2
	h-0.2l0.2-0.7c0-0.3-3.9-0.4-11.8-0.2L99.9,31c-4.1,0.1-8.1,0.7-12.1,1.5l0.4-0.6v-0.2L80.4,32.2z M89.1,33.2l1.8-1
	c0,0.3,0.1,0.8,0.4,1v0.6h-0.5l-1.1,0.4l-0.6-0.8V33.2z M98.3,33.1l0.2-0.2h0.3c0.6,0,1.2,0.2,1.7,0.5l-0.2,0.5l0.2,0.2l0.6-0.1v0.5
	l-0.6,0.1H100v0.2h-0.3L98.3,33.1z M87.1,34.2l1-0.1v0.5c-0.2,0.4-0.6,0.6-1,0.6l0.1-0.6L87.1,34.2z M109.6,37.4
	c-0.4,0-0.8,0.2-1,0.6v0.1l1.2-0.1c0.6,0,0.9,0.1,1,0.4l-0.3,0.5v0.1c0.1,0.7,0.6,1,1.8,1.2l0.8-0.3c-0.1-0.8-0.3-1.4-0.7-2.1
	l-0.5,0.1L109.6,37.4z M89.2,38.7c-1.4,0.1-2.2,1-2.3,3v0.2l0.4-0.3h0.2v0.2c-0.3,0-0.6,0.2-0.6,0.5c0,0.1,0.2,0.2,0.7,0.2v0.1
	c0,0.1-0.3,0.3-1,0.5v0.1c0.6,0,1,0.1,1.5,0.3c1.2,1.3,1.9,1.9,2,1.9h0.2c0.3-0.4,0.8-0.7,1.3-0.8v0.2c-0.1,0.9-0.3,1.4-1,1.4
	l-0.5-0.1c-1-0.1-1.8-1-1.7-2.1l-1,0.1c-0.3,0-0.5,0.1-0.7,0.3c-0.1,0.2-0.2,0.4-0.2,0.7c0.5,0.5,0.8,1.2,0.9,1.9
	c-0.5,0.3-0.8,0.9-0.7,1.5l0.1,1.4c0,0.2,0.5,0.3,1.5,0.3l0.9-0.1c0.8-0.1,1.6-0.2,2.3-0.5c-0.4,0.7-1.2,1-2,1h-0.1
	c-0.8,0-1.7-0.1-2.5-0.4l0.1,0.1l0.1,1l0.3,7.8c0.3,2.5,0.6,3.7,0.9,3.7l0.9-0.3c0,0.3,0.1,0.7,0.4,1c1,0.1,1.6,0.3,1.6,0.6v0.3
	l-0.3,0.3l-1.6-0.3c-0.3,0.1-0.4,0.2-0.4,0.3V65c0.8,1.7,1.3,2.5,1.6,2.5h0.2c0.4-0.4,1-0.7,1.5-0.8h0.3l4.2,0.3l0.7-0.1l0.5,0.6
	v0.2l-0.1,0.1l-0.3-0.2c-1.9-0.2-2.8-0.4-2.9-0.6l-1.1,0.3l-0.7,0.1l-1.2-0.1l-0.6,0.6c2.2,2.5,5.4,3.6,9.4,3.4
	c2.1-0.2,3.2-0.4,3.6-0.6c1.8,0,3.6-0.4,5.2-1.2c3.9-2,5.7-6.9,5.4-14.5l-0.2-4c-0.1-0.8-0.3-1.2-1-1.2c0.6-0.6,0.8-1.4,0.7-2.3
	c-0.1-0.9-0.2-1.8-0.5-2.7l-0.7,0.1v0.1l0.3,0.4v0.1l-1.2,0.1l-0.2-0.2c0.1-0.3,0.7-0.7,1.7-1.2v-0.1l-0.1-0.1l0.5-1.6l-0.3-0.3
	h-0.1l-0.1,0.1c0,0.2-0.1,0.3-0.2,0.3h-0.2c-0.3-0.1-0.6-0.4-0.7-0.8v-0.2l1,0.3c0.1,0,0.3-0.3,0.4-0.9c0-0.3-0.6-0.4-1.7-0.3
	l-2.3,0.2c-0.2,0-0.3,0.1-0.3,0.3v0.1c0,0.1,0.3,0.3,1,0.6l-0.3,0.3l-1.7-1l0.3-0.1l-0.6-0.6l0.2-0.2c0,0.3,0.1,0.6,0.3,0.6h0.3
	c0.3,0,0.7-0.3,1.1-1.1l-0.2-0.2l-1.1,0c-1,0.2-1.4,0.4-1.4,0.6l0.1,1.4c0,0.1,0.1,0.2,0.5,0.2c1.1,0.7,1.9,1,2.3,1h0.1
	c0.1,0,0.3-0.2,0.3-0.7h0.1c0,0.3,0.3,0.6,0.8,0.9l-2.8,0.9l-1.2-0.1l-0.1,0.1l0.1,3c0.1,1.2,0.3,2,0.9,2.4H108
	c-0.2,0-0.4,0.1-0.6,0.2c-0.1,0.1-0.2,0.4-0.1,0.6l0.3,0.7c0.7,0.6,1.1,1,1.1,1.4v0.1l-0.1,0.1l-0.8-0.3h-0.1l-0.1,0.1l0.3,1.6v6
	l0.1,1.4l0.1,0.7v0.1l-0.6-0.2c-0.1,0-0.3,0.6-0.3,1.6c0.1,0.3,0.1,0.6,0.4,0.8c-1.9,0.3-2.9,0.8-2.9,1.2v0.1
	c1.1,0.1,2.1,0.2,3.2,0.5v0.1c-0.6,0-1,0.1-1.1,0.4l-0.6-0.4c-0.6,0.1-1.1,0.3-1.6,0.6v-0.1c0-0.1,0.3-0.3,0.8-0.5V66
	c-0.5-0.1-0.9-0.3-1.2-0.5h-0.3v0.2c0.3,0,0.5,0.1,0.5,0.3v0.3l-0.3,0.1l-0.3-0.1v-0.1l0.1-0.1v-0.5l-0.1-0.1l-1.1,0.1
	c-3.6,0.2-6-0.6-7.2-2.2l-1-2.8c-0.4,0.1-0.8,0.3-1,0.6h-0.1v-0.2c0.1-0.3,0.4-0.5,1-0.5L93.9,57c0-0.5-0.1-1-0.3-1.4
	c0.1,0,0.2-0.3,0.2-0.8v-0.5c-0.1-0.7-0.5-1.3-1-1.7c0.8-0.1,1.1-0.8,1-2.2l-0.5-3.2l0.1-0.7l-0.1-0.1c-0.5,0.1-1,0.3-1.4,0.6
	l-0.2-0.2c0-0.5,0.3-1,1.2-1.4l0.7,0.1c0.2-0.6,0.3-1.3,0.2-1.9l-0.1-0.6c-0.6-2.8-2.1-4.2-4.3-4.1H89.2z M108.4,38.3
	c-0.5,0-0.9,0.3-1.1,0.8v0.3h0.2c0.5,0.1,0.9-0.2,1.1-0.6v-0.1L108.4,38.3z M108.5,46.2c0-0.6,0.4-0.9,1.3-1.2c0.6,0,0.9,0.1,1,0.4
	c-0.6,0-0.8,0.2-0.8,0.5v0.1l-0.7-0.2c-0.2,0.2-0.5,0.3-0.8,0.4L108.5,46.2z M111.6,47.1c0.2-0.4,0.6-0.6,1.1-0.6l0.6,0.1v0.2
	l-0.1,0.1l-0.2-0.2c-0.2,0.3-0.6,0.4-0.9,0.5h-0.3L111.6,47.1z M87.5,53.5h0.2c0.7-0.1,1.4,0.3,1.7,1l-0.1,0.7h-0.6
	C88.1,54.8,87.6,54.2,87.5,53.5z M112.1,54.5h0.1l0.1-0.1l1.1-0.1l0.1,0.1c-0.1,0.2-0.2,0.4-0.4,0.5C112.5,55,112.1,54.8,112.1,54.5
	L112.1,54.5z M93.2,56.1h0.2v0.1h-0.2V56.1z M82.9,73.9l-0.1,0.1l0.1,4.5v0.1l0.2,0.2l23.3-1.2c0.8-1,1.4-1.4,1.7-1.4
	c0.4,0.1,0.6,0.2,0.6,0.3l-1.4,0.9v0.2l13.8-0.7l-0.1-1.1l0.1-3.5c0-0.2-0.1-0.3-0.3-0.3l-9.9,0.6l0.3,0.9l-0.4,0.6v0.2h0.5l1,0.3
	v0.3l0.3,1V76c-1.4,0.1-2.8,0-4.1-0.3v-0.2c1.1-0.6,1.7-1.1,1.6-1.6v-0.1l-1.5,0v-0.2c0.8-0.1,1.2-0.4,1.2-0.8h-0.1l-0.1-0.1
	l-20.3,1l-0.1,0.1c0,0.3-0.1,0.6-0.2,0.6l-0.1,0.1c0-0.6-0.6-0.8-1.7-0.7L83.4,74L82.9,73.9z M88.5,77.6l0.3-0.1l1.2,0.3
	c0,0.1-0.2,0.3-0.6,0.5l-1-0.3V77.6z M110.7,30.6l-0.2,0.2l0.2,4.5l0.2,0.2l33.9-1.8c0.2,0,0.3-0.6,0.3-1.6l-0.3-3.2l-0.2-0.2
	L110.7,30.6z M129,32.2l0.9-0.4c0,0.3,0.3,0.6,1,0.8v0.1c-0.9,0.1-1.4,0.3-1.3,0.6h-0.3l0.1-0.8L129,32.2z M119.6,37.3l-1,0.3
	c-1.5,1-2.2,3.2-2,6.8l0.1,1.1l0.8,9.1l0.2,8.6c0.3,3.6,0.7,5.4,1,5.4c0.6,1,1.9,1.5,4.3,1.4l0.8-0.1l6.5-0.6l4.6-0.1l3.9-0.4
	c1.7-0.1,2.5-0.8,2.3-2.1l-0.1-0.7c-0.4-1.6-1-2.3-1.8-2.3c-0.2,0.2-0.5,0.3-0.8,0.4h-0.2l-0.7-0.6l-2.9,0.4l-10.1,0.3l-0.8-14.9
	l-0.1-0.1c-0.3,0-0.6-0.1-0.6-0.2l-0.1-0.1l-0.1-1.4l-0.3-0.7h0.3l0.1,0.1c0,0.2,0.1,0.3,0.3,0.3h0.2l0.1-0.1l-0.1-5.2
	c-0.1-1.2-0.3-2.3-0.8-3.4c-0.4-0.8-1.2-1.2-2.4-1.1H119.6z M146.9,70.6l-34.1,1.8l-0.1,0.1c0.1,1,0.3,1.5,0.6,1.7
	c-0.3,0.3-0.4,0.8-0.4,1.2l0.1,1.8l0.2,0.2l34-1.8l0.2-0.2l-0.2-4.5L146.9,70.6z M150.9,28.4l-15,0.8l-0.1,0.1L136,32v2.1l0.1,0.1
	l0.1-0.1l5.3-0.1l1.8-0.2v-0.2c-0.5-0.1-0.7-0.3-0.7-0.4v-0.3c1.2,0.2,1.9,0.6,2.2,1l0.8-0.1l13.8-0.7l13.8-0.6v-0.1l0.1-0.1
	l-0.3-4.8l-0.9,0.3l-3.2-0.2h-0.6c-0.4,0-0.8,0.1-1.1,0.4l0.4,0.9v0.2c-0.4,0-0.9-0.4-1.4-1.3l-8,0.3c-0.8,0-1.6,0.3-2.2,0.7
	c-0.3-0.3-0.9-0.6-1.4-0.5l-0.8,0.1c-1.7,0.3-2.5,0.7-2.4,1h-0.1C151.1,28.7,151.1,28.4,150.9,28.4z M142.7,29.7l1,0.2V30l-0.4,0.7
	h-0.2c-0.1,0-0.3-0.2-0.3-0.7L142.7,29.7z M137.6,31.3l1-0.3l0.1,0.8l-0.8,0.1l-0.3-0.2V31.3z M162.6,31.1l1.2-1l0.3,0.6
	c-0.3,0.4-0.8,0.6-1.2,0.6L162.6,31.1z M165.4,31.5l1.4-0.6l0.1,0.8h-0.5l-1.2-0.1c-0.2,0-0.3,0.3-0.3,0.7h-0.2l-0.1-0.1l0.2-0.8
	l0.6,0.1L165.4,31.5z M149.3,33.2c0.3-0.6,0.7-0.8,1-0.8l0.5,0.2c0,0.3-0.3,0.6-1,0.6H149.3z M160.6,34.9l-3.5,0.3l-1.4,0.1
	l-1.4,0.2v-0.1H154c0.1,0.7-0.3,1-1.1,1.2l-0.3-0.6l-2.2,1.2h-0.1l0.1-0.3c0-0.2-0.3-0.5-1-0.8l0.2-0.3v-0.1l-0.1,0.1l-4.3,0.2
	c-1,0.1-2.1,0.3-3,0.6c-0.6,0.4-0.8,1.2-0.8,2.3v0.5c0.1,0.3,0.1,0.6,0.3,0.6c0.1,0.9,1.4,1.4,4.1,1.4l1.4-0.1
	c2.6-0.1,4.1,0,4.7,0.3l0.5,11.5c0.1,1.7,0.4,3.2,0.8,4.8c-0.3,0.8-0.4,1.6-0.4,2.4c0.1,0.9,0.5,1.7,1.1,2.2h-0.5
	c-0.5,0-0.7,0.3-0.6,1l0.1,0.7c0.1,2.1,1.3,3.5,3.6,4h0.5c0.8-0.1,1.6-0.6,2.1-1.4l-0.2-0.2h-0.6l-1.4,0.6h-0.1l0.4-0.6
	c0-0.1-0.2-0.3-0.6-0.3V66h0.3l2.5,0.1c0.3,0,0.6-0.6,0.5-1.7c-0.1-0.4-0.3-0.8-0.5-1.2c0.2,0,0.3-0.1,0.3-0.3l-0.1-1.4l-0.1-0.1
	l-1,0.3c-0.3,0-0.6-0.1-0.7-0.4V61h0.1l0.1,0.1h0.1l1.4-0.6l-1.2-20l0.1,0.1l2.3-0.5c0.7-0.1,1.1-0.6,1.2-1.7
	c0.9,0.4,1.8,0.7,2.8,0.8v0.1c-0.6,0-0.9,0.2-1,0.5v0.1l0.2,0.2l0.8-0.1c1.5-0.1,2.3-0.3,2.2-0.7v-0.1l-0.7,0.1l-0.8,0.1v-0.1h-0.2
	v-0.2l0.6-0.1l1.7,0.3c0.8-0.6,1.2-1.5,1.2-2.4v-0.3C168.7,35.3,166,34.6,160.6,34.9L160.6,34.9z M156.4,37.3
	c-0.1-0.8,0.7-1.4,2.3-1.9c-0.6,1.9-1.2,2.8-2,2.8h-0.3v-0.1l0.3-0.1L156.4,37.3z M153.1,37.6c0-0.1,0.2-0.3,0.6-0.3l1.2,0.3
	c0,0.3-0.3,0.6-1,0.6h-0.2l0.1-0.6L153.1,37.6z M164.3,38.2c0.3-0.5,0.8-0.8,1.3-0.8l0.3,0.1c-0.5,0.6-0.9,1-1.2,1L164.3,38.2z
	 M148.2,40.3c0.3-0.8,0.8-1.3,1.4-1.3c0.3,0.1,0.6,0.3,0.6,0.4v0.2l-0.7,0.1C149.2,40,148.8,40.2,148.2,40.3L148.2,40.3z
	 M154.2,40.9c0.6,0,0.8,0.2,0.8,0.6l-0.2,0.6l0.1,0.1c1.3,0.1,1.9,0.3,1.9,0.7l-0.2,0.2c-0.6-0.6-1.4-0.8-2.3-0.7l0.2-0.3
	L154.2,40.9L154.2,40.9z M154.2,43.8h0.1l2,0.8c0,0.1-0.2,0.3-0.6,0.5l-1.2-0.1l0.1-0.6v-0.2c0-0.1-0.1-0.2-0.3-0.2L154.2,43.8z
	 M154.4,46.4l1.6,0.5v0.1l-1.1,0.3h-0.1v-0.1h0.2V47c0-0.2-0.3-0.3-0.7-0.3v-0.1L154.4,46.4z M155,48.1h0.3l2,0.8v0.5l-0.1,0.1
	l-0.9-0.2l-0.2,0.2c-0.6-0.2-1-0.7-1.1-1.3V48.1z M154.5,55.9h0.6c0.5,0.6,0.8,0.9,1,0.8l-0.3,0.3c-0.5,0-1-0.1-1.4-0.4L154.5,55.9z
	 M156.4,58.2l1.1,0.1l-0.2,0.5l-1.1-0.1L156.4,58.2z M154,60.2l0.3-0.3l1.9-0.1v0.3c-0.9,0.1-1.4,0.3-1.3,0.6
	C154.8,60.4,154.4,60.2,154,60.2L154,60.2z M150.2,70.3L138.3,71c-0.2,0-0.3,0.1-0.3,0.3l0.1,0.9c0,0.8,0.3,1.4,0.8,2
	c-0.5,0-0.7,0.1-0.7,0.3l0.1,1.2l0.2,0.2l1-0.1c4.1-0.2,7.4-0.5,10.1-0.8l3,0.1c0.1-0.8,0.3-1.2,0.4-1.2h0.2v0.1l-0.2,0.3V75
	l0.2,0.2l1.4-0.1c0.8-0.1,1.1-0.3,1.1-0.8c0.5,0.3,1,0.6,1.6,0.6c0.4,0,0.8-0.3,0.9-0.8l0.3,0.3l-0.2,0.3V75l17-0.9l0.2-0.2
	l-0.1-0.7c0-0.5-0.3-0.8-0.8-1l0.6-0.6l-0.1-1.1l0.1-1.1c-4.3,0-8.4,0.1-12.3,0.3c-2.6,0.1-5.2,0.4-7.8,1
	C153.4,70.3,151.8,70.3,150.2,70.3L150.2,70.3z M153.1,70.7c1.2,0.4,1.9,0.7,1.9,0.9v0.1h-0.1l-0.9-0.3l-0.3,0.3
	c-0.2,0-0.3-0.3-0.5-0.9V70.7z M149.3,72.3c0-0.3,0.3-0.6,1.1-0.8h0.1c-0.1,0.4-0.4,0.8-0.8,1h-0.1L149.3,72.3z M142.8,73h0.1
	l0.1,0.8V74h-0.3c-0.3-0.3-0.6-0.6-0.8-0.6v-0.1h0.1l0.5,0.1C142.7,73.5,142.8,73.4,142.8,73L142.8,73z M150,74.1l0.3-0.3h0.2
	c0.8-0.1,1.2,0.1,1.2,0.3v0.1c0,0.1-0.2,0.3-0.6,0.3C150.4,74.5,150,74.3,150,74.1z M165.4,27.5l-0.1,1.2h-0.2l-0.1-0.1
	c-0.1-0.6-0.2-0.9-0.4-0.9h-0.3l-0.1,0.1c0,0.6,0.1,1.2,0.3,1.8l1.2-0.4l0.5,0.4v0.1L165,30l-0.7-0.1l0.1,2.6l7.4-0.3
	c1.1-0.1,1.7-0.5,1.9-1c0.1,0,0.4,0.3,0.8,0.9l1-0.1l17-0.8c2.4-0.1,4.8-0.5,7.2-1l0.3,0.6l2.1-0.2c0.3,0,0.6-0.4,0.5-1.2l-0.1-0.8
	c-0.6-2-1.5-3-2.8-2.9l-0.8,0.1c-0.6,0.1-1.2,0.4-1.8,0.8c0-0.3-0.6-0.4-1.9-0.5l-8,0.6c-0.6,1-1.1,1.4-1.4,1.4l0.3-1.4l-6,0.3
	L165.4,27.5z M189.8,29.3c0.1-0.5,0.1-0.7,0.3-0.7c0.4,0.5,0.8,0.8,1.2,0.8v0.2l-0.1,0.1C190.7,29.6,190.2,29.6,189.8,29.3
	L189.8,29.3z M187,29.8l1.2,0.4l0.9-0.1l0.3,0.7l-0.2,0.2h-0.1c0-0.5-0.1-0.7-0.3-0.7l-1.2,0.3H187V29.8z M179.2,33.5
	c-1.4,0.1-3,0.2-4.4,0.5c-2.4,0.1-3.7,1.6-3.9,4.3l0.1,0.7c0.1,0.6,0.3,1.1,0.6,1.6c-0.3,0.3-0.6,0.9-0.5,1.4
	c0.2,1.2,0.3,1.8,0.6,1.8c0.5-0.3,0.8-0.5,0.8-0.6c0-0.3-0.3-0.7-0.8-1.1v-0.3c0.4,0,0.8-0.1,1.1-0.4h0.1c0.1,0.8,0.4,1.1,1.1,1.1
	l-1.2,1v0.1l0.3,0.3l0.2-0.3h0.1l0.3,0.8v0.1l-2.1-0.3l-0.2,0.6l0.6,7.1l-0.1,0.8c0.7,0.1,1,0.1,1,0.3c-0.7,0.2-1,0.3-1,0.5l0.2,3.5
	l0.3,1.6c-0.1,0-0.3,0.4-0.3,1.2l0.3,0.7l0.4-0.1c0.7,0.1,1,0.3,1,0.5v0.3l-0.3,0.1l-1-0.3l-0.2,0.2v1.7c0.1,0.6,0.2,0.8,0.4,0.8
	c0.3-0.6,0.8-0.9,1.4-1.1l0.3,0.1v0.1l-2,1.1c0.1,1.4,0.6,2.3,1.5,2.8l0.9-0.8h0.1v0.3c-0.6,0.1-0.8,0.3-0.8,0.5s0.3,0.3,0.9,0.4
	l0.8-0.3c0.7-0.7,1.6-1.2,2.5-1.2c-0.1-0.6,0.1-1.1,0.6-1.5c0-0.2-0.3-0.3-1-0.3l-1.2-1.2h-0.1c0,0.3-0.1,0.4-0.6,0.6v-0.1l-0.1-0.1
	c0.5-0.4,1.1-0.7,1.8-0.9l-0.1-0.4c0.2-0.7,0.4-1,0.8-1l0.5,0.1h0.1v-0.6l-0.5-5.5l0.1-1.4c0-0.5,0.6-0.7,1.9-0.8
	c1.2,0,2.3,0.3,3.4,0.8c2.3,1.4,3.7,2.1,3.9,2.1v0.3h-0.1l-0.7-0.1H187l-0.1,0.1v0.2c2.1,2.5,3.2,3.9,3.2,4.1l1.4-0.6h0.3
	c-0.8,0.4-1.1,0.9-1,1.4v0.2c0,1,0.7,1.8,1.7,1.9l-0.1,0.5c0,0.5,0.6,0.9,1.5,1.4l-0.2,0.3c0,0.1,0.3,0.3,1,0.6l0.8-1h0.6l0.3,0.8
	l1.2-0.6c1.2-0.3,1.9-0.7,1.9-1.2v-0.1c-0.1-0.8-0.6-1.6-1.2-2.2V61h0.3v-0.3l-0.3-0.3c-1-0.1-1.6-0.3-1.6-0.5l0.6-0.7v-0.3
	l-0.1-0.3c-0.9-2-3.1-4.4-6.6-7.2c0.1-0.6,0.3-0.9,0.4-0.9h0.2l0.3,0.4c0.7-0.1,1.3-0.9,1.9-2.5l0.8,1h0.1c0.1,0,0.2-0.2,0.3-0.6
	c2.1-1.7,3.2-4.2,2.9-6.8l-0.1-0.8c-0.1-2.3-1.4-4.3-4.1-6C191.7,33.5,187,33.1,179.2,33.5z M188.8,36l1.5,0.5
	c-0.1,0.2-0.2,0.4-0.4,0.5c-0.3-0.3-0.8-0.5-1.2-0.5v-0.1L188.8,36z M190.1,38c1.4-0.3,2.3-0.8,2.7-1l0.8,1.8
	c-0.5,0.1-1,0.3-1.4,0.6c0-0.6-0.7-1-2-1.2V38z M177.7,39.1c2.5-0.4,3.8-0.8,3.8-1.2h0.1v0.5c4.5,0.2,7.2,0.6,8.1,1.2
	c0.1,0.7,0.6,1.2,1.4,1.7c-0.4,0.8-0.7,2.4-0.8,4.7V46l-0.6-0.1h-0.1l-1.4,0.8V47l0.9-0.1c0,0.1-0.2,0.3-0.6,0.5l-1.9-0.3l-0.2,0.2
	v0.1l0.3,0.3h0.1l-0.1,0.3v0.1l1.2-0.1l0.3,0.3v0.1l-1-0.2h-0.3l-0.2,0.2v0.2c0.1,0.1,0.3,0.3,0.6,0.4c0.4-0.1,0.8-0.3,1.1-0.6V49
	c0,0.6,0.4,0.8,1.2,0.8c-0.1,0.3-0.5,0.6-0.9,0.6h-1.7c-0.1-0.9-0.4-1.3-0.8-1.3c-0.2,0-0.3,0.1-0.3,0.3l0.1,1.1h-0.5v0.3l0.2,0.2
	l0.6-0.5h0.2c0,0.5-0.3,0.7-0.9,0.8h-0.3c-0.3,0-0.6-0.6-0.7-2v-0.2h0.1l0.1,0.1h0.3c0.5-0.1,1-0.4,1.2-0.8
	c-0.6-0.6-1.5-0.9-2.4-0.8l-5.9,0.4h-0.1c-0.1-0.8-0.4-1.7-0.8-2.5c0-0.1,0.2-0.3,0.6-0.3l-0.3-0.7l0.1-1.2c0-0.3-0.1-0.4-0.3-0.4
	c0.3-1,0.5-1.9,0.4-3L177.7,39.1z M187.8,38.3l0.3-0.3h0.5c0.6,0,0.9,0.1,0.9,0.3l-0.3,0.1L187.8,38.3z M174,41.1
	c0.3-0.9,0.8-1.4,1.4-1.4h0.2c-0.6,0.6-0.9,1.4-0.9,2.2C174.4,41.8,174.2,41.5,174,41.1z M173.5,45.1c0-0.3,0.6-0.6,1.8-1h0.2
	c0.1,0.3,0.2,0.6,0.5,0.8l-2.3,0.2L173.5,45.1l-0.1,0.1L173.5,45.1z M194.4,45.8c0.5-0.6,1.2-1,2-1.1h0.1v0.1l-0.1,0.1
	c-1,0.3-1.6,0.7-1.5,1.1v0.1l0.1,0.1h-0.1L194.4,45.8z M173.1,47c0.1-0.3,0.2-0.6,0.4-0.6l0.9,0.1l-1,1.1
	C173.3,47.5,173.2,47.4,173.1,47z M175.3,54.3l0.9-0.1v0.5l0.3,0.7h-0.1l-0.1,0.1c-0.4-0.3-0.8-0.6-1-1.1L175.3,54.3z M172.4,58.2
	l0.2-0.2h0.1c0.1,0,0.3,0.2,0.5,0.6l-0.2,0.2L172.4,58.2z M175.2,63.1h0.1c0.3,0.1,0.6,0.4,0.6,0.8c0,0.3-0.1,0.6-0.3,0.7l-0.3-0.6
	l-1.1,0.4h-0.1v-0.5C174.8,63.9,175.2,63.6,175.2,63.1z M176.6,64.5c0.1-0.3,0.4-0.5,0.8-0.5h0.2l0.2,0.2v0.6h-0.1L176.6,64.5z
	 M196.5,67.5L182.1,69l-1.2-0.1v0.2l1.4,0.7l-0.2,0.2h-0.3l-0.7-0.6c-0.4,0.8-0.8,1.3-1.4,1.3v0.1l0.5,0.8l-0.6,1.7v0.1l8.3-0.2
	l4.3-0.2l7.9-0.6v-0.2h-0.2v-0.1l0.9-0.3h0.1l-0.2,0.6l0.2,0.2h0.2c0.6-0.1,1-0.5,1.4-0.9h0.2c0,0.6,0.4,0.8,1.2,0.8h0.6l0.2-0.2
	l-0.1-3.3l-0.2-0.2c-0.3,0.1-0.6,0.1-0.8,0.4h-0.1l-0.2-0.2v-0.1l0.1-0.1c0.8-0.3,1.2-0.5,1.2-0.6v-0.5l-0.2-0.2h-0.5
	c-0.3,0.3-0.6,0.6-1.1,0.8h-0.1V68l0.1-0.1v-0.1c0-0.3-1.4-0.4-4.1-0.3L196.5,67.5z M177.3,68.8c-1.7,0.2-3.4,0.6-5,1.2v-0.1
	c0-0.1,0.3-0.3,1.1-0.5v-0.2l-6.9,0.3l-0.2,0.2V70l0.4,3.5l-0.1,0.7v0.1l0.1,0.1l0.4-0.1l4.1-0.1c0.8-0.1,1.1-0.4,1.1-0.8h0.1
	c0.6,0.5,1.4,0.7,2.2,0.7c1.2-0.1,2.3-0.6,3.2-1.2v0.3c0.5,0,1-0.2,1.3-0.6v-0.1l-0.1-0.1l-0.6,0.1l0.1-0.9v-0.2l-1.4-0.3l1.7-2.3
	l-0.2-0.2L177.3,68.8z M167.7,70.8c0-0.3,0.2-0.6,0.8-0.7c0.8,0,1.2,0.1,1.2,0.3L167.7,70.8L167.7,70.8z M175,71.2
	c0-0.1,0.2-0.2,0.6-0.3h0.1l-0.3,1c0.1,0.3,0.3,0.6,0.6,0.6v0.2l-0.8,0.1h-0.1v-0.6c0-0.2-0.3-0.3-0.8-0.3c0-0.1,0.3-0.3,0.8-0.5
	h0.1L175,71.2z M181.6,71.5l1.4-0.2c0.3,0,0.6,0.1,0.7,0.3c-0.4,0.5-1,0.8-1.7,0.9h-0.1L181.6,71.5z M194.8,26l-0.2,0.2l0.3,4.8
	l0.1,0.1l19.8-1.2l19.4-0.8l0.2-0.8c-0.1-2.3-0.6-3.7-1.4-4.3L194.8,26z M232.7,26.3l0.9,0.1l-0.1,0.3l0.1,0.8v0.1h-0.2
	c-0.3-0.3-0.8-0.5-1.2-0.5h-0.2l-0.1,0.1v-0.1C232.5,26.8,232.7,26.5,232.7,26.3z M214.7,31.8l-1.2,0.2c-2.8,1.3-4.1,3.3-4,5.9V38
	c1.2,0.1,1.7,0.3,1.7,0.5l-1.8,0.1c-1,1.7-2.6,6.5-4.9,14.2c-2.3,5.5-3.4,8.8-3.3,9.8V63c0.8,1.9,2,2.8,3.7,2.8h0.3
	c1-0.1,1.7-0.8,2.3-2.1c0.8-3.8,1.6-5.9,2.3-6.3l3.5-0.2l8.6-0.3l0.6-0.1l0.4,1.4c1.7,4.3,3.4,6.5,5.2,6.4c1.3-0.1,2.4-0.8,3.1-2
	c0-0.3-0.4-0.7-1.2-1.2V61h0.1l0.7,0.6l0.3-0.3c-0.1-1.2-0.6-2.4-1.2-3.4c-0.1-0.9-0.3-1.4-0.6-1.3h-0.1l-0.9,0.3v-0.1
	c0.5-0.5,0.8-0.8,0.8-1c-2.1-4.1-4.5-9.6-7.4-16.3c-1.7-5.1-4-7.6-6.8-7.4L214.7,31.8z M214.7,38.9h0.1c0.3,0.9,0.6,1.3,1.1,1.3
	l-0.1,0.6v0.3c0,0.6,0.4,1,1.2,1.4l0.1,1.2l0.3,1.3c1.9,4.1,2.8,6.2,2.8,6.5l-9.4,0.5l0.1-0.6c1.4-3.8,2.1-6.1,2-7.1l-0.1-1
	l-0.1-0.1c0.8-0.3,1.1-0.7,1.1-1.2V42l-0.1-0.1l-0.6,0.6l0.2-0.7C213.8,41.8,214.3,40.9,214.7,38.9L214.7,38.9z M212,53.7
	c0.1-0.6,0.6-0.9,1.2-1h0.2c-0.4,0.3-0.6,0.8-0.6,1.2C212.5,54,212.2,53.9,212,53.7L212,53.7z M197,67.7l-0.2,0.2l0.2,3.6
	c0,0.5,0.1,1,0.4,1.3l1.2-0.3l6.8-0.3c0.9,0,1.7-0.3,2.5-0.7c0.7,0.3,1.4,0.4,2.2,0.5l1-0.1l1.7-0.3v-0.1c0-0.1-0.1-0.2-0.3-0.2V71
	l0.5,0.2l1.2-0.4h0.1c0.1,0,0.3,0.2,0.3,0.6l-0.1,0.1l-0.8-0.3l-0.2,0.2v0.2l0.1,0.1l16.4-0.6c4.3-0.2,6.5-0.5,6.5-0.8l-0.2-4.5
	l-0.2-0.2L197,67.7z M238.4,23.8c-7.2,0.5-10.8,0.9-10.8,1.2l0.2,4.2l0.2,0.2l2.5-0.1c0.8,0,1.7-0.2,2.5-0.6c1,0.3,2.1,0.4,3.1,0.4
	l8.7-0.6h0.1c0.2-0.9,0.6-1.4,1-1.4l-0.6-0.6v-0.1l0.1-0.1l0.2,0.2c0.6-0.1,1.2,0.1,1.8,0.3l-0.3,1V28c0,0.3,1.1,0.4,3.2,0.3h0.6
	c1.9-0.1,2.9-0.3,2.9-0.6v-0.1l-0.4-1.1v-0.1l0.6,0.1h0.1l1.4-0.6v0.1l-0.8,0.7v0.1l0.1,0.1l0.7-0.3h0.1l-0.1,0.3
	c0,0.2,0.3,0.5,0.8,1l3.9-0.2c0.2-0.1,0.3-0.3,0.3-0.7l-0.1-1.8l-0.2-0.2l-1.3,0.6h-0.1l-0.2-0.2v-0.2l0.8-0.1
	c0.3,0,0.6-0.1,0.7-0.3l-1.7-1l1-0.1c0.4,0,0.8-0.3,0.9-0.6v-0.1l-0.1-0.1L238.4,23.8z M239.5,24.7c0-0.1,0.2-0.3,0.6-0.3l1.7,0.1
	h0.3v0.2c-0.6,0.4-1.2,0.7-2,0.8H240l0.1-0.3V25l-0.6,0.1L239.5,24.7z M251,25.6c0-0.1,0.1-0.2,0.4-0.3c0.4,0.1,0.8,0.3,1,0.8v0.2
	H252l-1-0.4L251,25.6z M248.4,26.2l0.6-0.7l0.7-0.1l0.1,0.1c-0.1,0.5-0.5,0.8-1,0.8h-0.5V26.2z M238.2,26.7l0.3-0.3h0.2
	c0.3,0,0.6,0.1,0.7,0.3v0.3l-0.1,0.1l-0.7-0.3h-0.2l-0.1,0.1v-0.1L238.2,26.7z M249.4,27.1l0.4-0.5l0.8-0.1l0.9,0.2
	c-0.1,0.3-0.4,0.6-0.8,0.6l-1.4-0.1L249.4,27.1z M243.1,30.3c-1.4,0.1-2.8,0.4-4,0.9c-4.4,2.1-6.5,4.8-6.3,8.3l0.1,0.8
	c0,1.4,0.4,2.8,1.2,3.9l0.7-0.3h0.1v0.2h-0.3v0.2c0.6,0.8,1.3,1.6,2.1,2.1c1.2,0.8,3.3,1.4,6.1,1.6l3.4,1.3c3.9,0.4,5.9,1.9,6,4.3
	l-0.1,0.9c-0.4,2.5-2.5,3.9-6.3,4.1c-1.9,0.2-3.9-0.6-5.1-2.1c-1.8-3.4-3.2-5.2-4.2-5.1l-0.8,0.1c-1.4,0.1-2.3,1.1-2.8,3.1
	c0.2,0.8,0.4,1.2,0.6,1.2c0.2,1,0.5,2,1,2.9c2.5,3.5,6.3,5.1,11.4,4.8c1.9-0.1,3.7-0.6,5.5-1.3v-0.1l-0.1-0.1l-0.1-1
	c-0.1-0.8-0.4-1.2-1.1-1.2v-0.1l2.3-0.3h0.5c1.1,0,1.7,0.2,1.7,0.5c-1,0.1-1.6,0.6-1.5,1.6v0.1l0.1,0.1c0.3-0.1,0.7-0.2,1-0.5
	c0-0.1-0.1-0.2-0.3-0.2v-0.2h0.2l0.7-0.1c2.5-1.7,3.7-3.7,3.5-6.1l-0.3-1.3c0.3,0,0.6-0.1,0.6-0.3v-0.3l-0.5-0.4l0.1-1.2l-0.1-0.9
	c-0.9-2.3-1.9-3.5-3-3.4l-0.7,0.1v-0.1l0.2-0.3v-0.3c-4.7-1.9-8.3-2.8-10.7-2.7h-0.1v0.1l1.7,1.6v0.1h-0.6c-1.3,0-1.9-0.1-1.9-0.5
	l0.4-0.3l-0.5-1.4c0-0.5-1-0.8-2.8-0.9l-1.9,0.2H238v-0.5l-0.1-0.6c0.5-0.1,0.9-0.3,1.2-0.8v-0.3c0-0.1-0.3-0.3-0.8-0.6
	c0.4-1.1,1.1-2.1,1.9-3l-0.1-0.7c0.1-0.6,0.5-1,1-1.3l-0.3-0.3l-0.1-0.8l0.1-0.1c0.2,0,0.6,0.1,1,0.6h0.1c0-0.6,0.3-1.2,1-1.3
	l0.5,0.1v0.2c-1.2,0.8-1.7,1.3-1.7,1.7l0.2,0.2h0.2c0.3-0.1,0.7-0.2,0.9-0.5h0.2v0.2l-0.1,0.1c-0.2,0-0.3,0.1-0.3,0.3
	c0.1,0.2,0.3,0.3,0.7,0.3l0.7-0.1c0.3,0,0.6-0.2,0.8-0.5l0.7,0.6c2.7,0.7,4.1,1.5,4.1,2.4l1.3-0.3c0.6,0,1.2,0.2,1.6,0.6h0.1
	l-0.1-0.6c0-0.2,0.1-0.3,0.2-0.3l0.5,0.3h0.1l1-0.1c0.5,0.1,0.7,0.3,0.7,0.4h-0.5l-0.7-0.1h-0.1l0.1,1.1c0,0.3-0.2,0.5-0.6,0.5H253
	l-0.5-0.9h-0.1c-0.1,0-0.5,0.7-1,2v0.1l0.1,0.1l1.1-0.1l-0.2,0.7v0.1l0.7-0.1c1.8-0.1,2.8-1.2,2.9-3.3c-0.5-2.5-1.3-3.7-2.5-3.6
	c-0.1,0-0.2,0.2-0.2,0.6l-1.3,1.2c-0.2-0.2-0.5-0.3-0.8-0.3l-0.8,0.1c-0.4,0-0.8,0.1-1.1,0.4l-0.1-0.3c-0.9-0.2-1.4-0.6-1.4-1.3
	l-0.6,0.1l-1-0.2V34l4.8-0.5l3,0.1v-0.2l-0.6-0.8c-2.1-1.4-3.7-2.1-4.8-2h-0.1l-0.1,0.1l0.3,0.6h-0.1
	C246.8,30.6,245,30.3,243.1,30.3L243.1,30.3z M244.8,31.1l0.2-0.2h0.1l1.2,0.3v0.2l-0.3,0.1l-1.2-0.2V31.1z M246.4,31.8v-0.1
	c1.4,0.1,2.1,0.3,2.1,0.6l-0.6,0.1l-1.1,0.1l-0.3,0.3l0.1,0.6v0.1h-0.1l-0.1-0.1h-0.1l-0.7,0.3v-0.2C246,33,246.3,32.5,246.4,31.8
	L246.4,31.8z M237.3,32.9c0.6-0.1,1.3,0.1,1.9,0.5l-1.4,0.8h-0.2V34l0.4-0.1v-0.2c-0.2-0.3-0.5-0.6-0.7-0.6L237.3,32.9L237.3,32.9z
	 M243.7,32.8l0.3-0.1l0.9,0.1c-0.1,0.4-0.6,0.7-1,0.8h-0.5v-0.1l0.4-0.1L243.7,32.8L243.7,32.8z M238.5,43c0.1-0.2,0.3-0.3,0.9-0.4
	h0.1c0.9,0.1,1.7,0.4,2.4,0.9c-0.7,0.7-1.6,1.1-2.5,1.2c-0.8,0.1-1.7-0.1-2.4-0.7l0.3-0.3l3,0.3l0.2-0.2v-0.3l-0.3-0.3
	c-0.5,0-1,0.1-1.4,0.3v-0.1h-0.2L238.5,43z M246.1,45.2l0.1-0.5c0-0.3,0.5-0.5,1.4-0.6l0.5,0.1v0.2l-0.3,0.3l-1,0.1
	c-0.2,0-0.3,0.1-0.3,0.5L246.1,45.2L246.1,45.2z M244.6,45.6h0.1l0.1-0.1h0.2l1.4,0.1v0.1c0,0.2-0.3,0.4-0.9,0.5
	C245.1,46.3,244.7,46,244.6,45.6L244.6,45.6z M251,45.3l0.8-0.1v0.1l-0.1,0.1v0.1l0.1,0.1c0.3,0,0.6,0.1,0.6,0.2l0.1,0.1v0.5
	l-2.1,0.1l-0.1-0.7l0.8-0.3v-0.1l-0.1-0.1L251,45.3z M243.3,46.7v-0.1c1.2,0.3,1.9,0.5,1.9,0.7v0.3l-1.7,0.1l-0.7-0.2L243.3,46.7z
	 M248.9,47.8c0.3-0.4,0.6-0.7,1.1-0.8l-0.1,0.6V48h-0.3L248.9,47.8z M253,47l0.2-0.2c0.3,0.3,0.6,0.5,1,0.5v0.1l-0.3,0.3l-0.7,0.1
	v-0.6L253,47z M250.8,47.3l0.2-0.2l1.1,0.1c0.1,0.5-0.2,0.9-0.6,1C251.3,48.2,251.1,48,250.8,47.3L250.8,47.3z M230,66l-0.2,0.2v0.3
	c0.1,1.1,0.2,2.3,0.4,3.4l-0.1,1l2.3-0.1c0.6-0.1,0.9-0.3,0.9-0.5c0.8,0.3,1.7,0.6,2.6,0.6l5.9-0.6l20.9-1.1l0.2-0.2l-0.3-4.6
	l-0.1-0.1l-4.8,0.3L230,66z M251.8,66.8c0-0.1,0.2-0.3,0.6-0.5h0.2v0.1c-0.3,0-0.4,0.1-0.4,0.3v0.1l0.1,0.1l0.7-0.3h0.2
	c-0.3,0.6-0.5,0.8-0.8,0.8h-0.2c0-0.3-0.2-0.4-0.5-0.4L251.8,66.8z M254.4,22.8l-0.2,0.2l0.1,1.6l0.1,1l-0.1,0.8l0.1,1.1
	c0,0.1,0.1,0.2,0.5,0.3l2.6-0.3l0.9,0.2l0.2-0.2v-0.2c-0.6-0.1-0.9-0.1-0.9-0.3l1.4-0.1l0.2-0.2c0-0.3-0.6-0.5-1.9-0.7
	c0-0.1,0.3-0.3,0.8-0.4c0.9,0.1,1.4,0.4,1.4,1l-0.6,0.8v0.1l2.3-0.1l0.1-0.1c-0.3-0.7-0.8-1.4-1.4-2l-3-0.6H257
	c-0.2,0.7-0.3,1-0.5,1c0-0.5-0.1-0.7-0.3-0.7l-1.2,0.1c0.2-0.3,0.3-0.7,0.4-1h0.2l0.8,0.6l0.3-0.3l-0.8-0.6v-0.1l0.1-0.1l1.2,0.1
	h0.1c0.1,0,0.3-0.2,0.4-0.7c0.5,0.1,0.9,0.3,1.2,0.6c1.4,1.5,2.4,2.3,3.2,2.2h0.1l0.2-0.2l-0.8-0.8v-0.1l2.6-0.3h0.1l-0.3,0.3
	l0.3,1.1l0.7-0.1h0.1c-0.2,0.3-0.4,0.6-0.4,0.9v0.2l0.3,0.3l0.1-0.1l2.8,0.2h0.5c0.1-0.7,0.1-1,0.3-1h0.1l0.3,0.2l0.9-0.3v0.1
	l0.1,0.1c0,0.1-0.1,0.2-0.4,0.3l0.2,0.2l1-0.1l0.2-0.2l-0.1-1.1l0.8,0.2h0.3c0.4-0.4,0.9-0.7,1.4-0.9h0.6v-0.3L274,24v-0.1l0.8-0.1
	h0.1c0.5-0.1,1,0.3,1.2,0.8c-1.2,0.1-2.5,0.8-4.1,2.3V27h0.1l0.1-0.1l1.1-0.1l7.6-0.1h0.1c1.6-0.1,3.1-0.3,4.6-0.9
	c0.6,0.5,1.3,0.8,2.1,0.7l1.1-0.1l0.2-0.2l-0.2-3.6c0-0.5-0.1-1-0.4-1.3l-2.3,0.2l-0.7,0.1l-10.3,0.3h-0.3c-2.1,0.1-4.1,0.5-6.1,1.2
	c0-0.4-0.5-0.7-1.3-0.8H267l-0.7,0.3l-2.8,1.6c-0.6-0.7-1-1.1-1.2-1.1l-0.2,0.6h-0.3l0.2-0.5l-1-0.6l-0.7,0.1l-0.9,0.8
	c0-0.5-0.8-0.7-2.4-0.8l-2.1,0.2L254.4,22.8z M259.9,23.1l0.3-0.1l1.2,0.5c0,0.6,0.3,0.8,0.7,0.8v0.1c-0.3,0.1-0.6,0.2-0.8,0.5h-0.2
	v-0.1C260.4,24,259.9,23.5,259.9,23.1L259.9,23.1z M266.6,23.1l0.6-0.3h0.2l0.7,0.6l-1,0.5l-0.5-0.6L266.6,23.1z M266.2,23.7
	l0.8,0.2V24l-0.3,0.1c0,0.1,0.1,0.2,0.3,0.2v0.2h-0.5c-0.3-0.1-0.5-0.3-0.6-0.6L266.2,23.7z M284.7,24c-0.1-0.7,0.3-1.1,1.2-1.3
	c0.1,0,0.3,0.2,0.3,0.6C286.2,23.4,285.7,23.6,284.7,24L284.7,24z M267.5,24.7c0.1-0.4,0.6-0.7,1-0.8h0.2c-0.3,0.3-0.4,0.8-0.5,1.2
	h-0.1C268.1,24.9,267.9,24.8,267.5,24.7L267.5,24.7z M263.6,26.2c-0.3,0.1-0.6,0.1-0.8,0.4l1,0.6h0.2l0.2-0.3v-0.3l-0.3-0.3H263.6z
	 M278.9,28.8c-1.2,0.1-2.5,0.3-3.7,0.6v0.2l0.6,0.3l-0.2,0.2h-0.3c-0.6,0-1-0.3-1.2-0.8h-0.2c0,0.3-0.2,0.5-0.6,0.5
	c-0.6-0.3-1.3-0.4-1.9-0.5c-0.8,0.1-1.6,0.3-2.2,0.7c-1.3-0.3-2.6-0.4-4-0.3l-1.4,0.1c-1.9,0.1-3.2,0.9-3.7,2.5
	c0.1,0.3,0.2,0.4,0.3,0.4l1-0.1l0.1-0.1c0.5,0.2,0.7,0.5,0.7,0.6l-0.4,0.3l-1.2-0.4h-0.5l-0.2,0.2l1,0.8v0.3c-0.7,0.4-1,0.8-1.1,1
	l0.4,6.3l0.1,2.8l-0.1,1.4l0.8,0.3h0.1c1.3-1.7,2.2-2.6,2.7-2.6v-0.1l-0.6-0.6v-0.1c0.5,0,0.7-0.1,0.7-0.3c-0.1-0.3-0.4-0.4-0.7-0.4
	v-0.1h0.1c0.9,0.3,1.4,0.8,1.4,1.5v0.3c0,0.4-0.1,0.8-0.4,1l-1.2-0.4l-0.7,0.1c-0.3,1.4-0.7,2.2-1,2.2h-0.2l-0.8-0.1v0.1l-0.1,0.1
	l0.1,0.7l0.4,1.7l-0.1,1.2v0.1l1.6,0.1c1-0.1,2.1-0.4,3-0.8v-0.1l-0.2-0.2c0-0.4,0.2-0.8,0.5-1h0.3l0.8,0.6l0.4-0.5l-0.1-1l0.2-0.2
	l2.1-0.1l6.6-0.6l2.4,0.1v-0.1l-0.1-0.7c0-0.6,0.4-1,1.4-1.2h0.2c-0.6,0.7-1,1.2-1,1.7v0.1l0.2,0.2l1.2-0.1c1.9-0.1,2.9-0.9,2.8-2.4
	v-0.1c0-0.5-0.2-0.9-0.5-1.2c-1-1-2.6-1.4-5-1.3c-1.8,0.1-3.6,0.6-5.2,1.2v0.2c0.6,0,1.2,0.1,1.7,0.3v0.1h-0.2
	c-0.2,0.6-0.4,0.9-0.6,1h-0.2L273,44v-0.1l0.1-0.1v-0.2l-1.3-0.8l0.1-0.3v-0.1l-1,0.3c-1.1-0.3-2.2-0.5-3.3-0.5l-0.7,0.1l-0.1,0.1
	c-0.3,1.2-0.8,1.9-1.2,1.9h-0.1c0.6-1,0.8-2,1-3.1c-0.1-0.8-0.3-1.6-0.8-2.2c0.6,0,0.9-0.4,0.8-1L266,35c0-0.6,0.6-0.8,1.9-0.9
	l5.2,0.1h0.2c0.9,0,1.7-0.3,2.5-0.8h0.1c0,0.1,0,0.3-0.1,0.3s-0.2,0.1-0.3,0.1V34l4.5-0.1c2.1-0.1,3.3-0.8,3.5-2.2v-0.1
	c-0.7,0.1-1.2-0.6-1.4-1.7v-0.2h0.2l0.6,0.3l0.2-0.2v-0.1C282.8,29.1,281.4,28.7,278.9,28.8L278.9,28.8z M261,30.9
	c0.3-0.4,0.9-0.7,1.4-0.6l2.1,0.3v0.1l-0.6,0.1l-2.8,0.1L261,30.9z M273.2,30.1l1.5,0.3v0.1l-0.2,0.2l-1.5-0.3v-0.1L273.2,30.1z
	 M269.8,32l0.6-0.1l0.7-0.1c0.2,0,0.3,0.1,0.3,0.6h0.2v-0.2h0.1v0.1c-0.3,0.4-0.8,0.7-1.3,0.8c-0.1-0.6-0.3-0.9-0.6-0.9V32z
	 M261.9,34.5l0.7,0.1h0.1l0.1-0.1l0.1,1c-0.7-0.1-1-0.3-1-0.5L261.9,34.5z M264.1,45.6c0.4,0,1.2-0.5,2.4-1.4l0.6,0.3
	c0,0.1-0.3,0.3-0.9,0.4c0,0.3,0.2,0.6,0.5,0.8l0.9-0.1v0.2c0,0.1-0.2,0.3-0.6,0.5l-1.2-0.1h-0.1l-0.1,0.1l0.3,0.6v0.1l-1.2-0.1v0.1
	l-0.1,0.1v0.6l-0.8-0.3v-1.7v-0.1H264.1z M273.7,44.7l0.3-0.1l1.5,0.7h0.1c0,0.5-0.3,0.9-1.1,1.1h-0.1v-0.1l0.2-1
	C274.5,44.9,274.3,44.8,273.7,44.7L273.7,44.7z M265.7,45.5c-0.6,0-1.1,0.3-1.4,0.8v0.2l0.9-0.1c0.3,0,0.6-0.1,0.7-0.3v-0.5
	L265.7,45.5z M266.3,49.8c-0.5,0.7-1.5,1.1-3.1,1.2l-1.1,0.1c-0.5,0.1-1,0-1.4-0.1v0.1l-0.1,0.1v0.6l0.6,0.6c-0.3,1-0.5,2.1-0.4,3.1
	l0.1,1.4c0.1,1.2,0.3,2.3,0.6,3.4c0.1,1.3,1.9,1.8,5.7,1.7l2-0.1c1.6-0.1,3.1-0.3,4.6-0.8c2.1,0.3,4.3,0.4,6.5,0.3l1.6-0.1
	c2.9-0.1,4.2-1.3,4.1-3.4l-0.1-0.6c-0.8-1.2-2.7-1.8-5.7-1.7l-3.4,0.2l-0.3,0.5v0.1l-1.8-0.1h-0.5c-0.6,0-0.9,0.2-1,0.5
	c-1.5-0.4-3-0.5-4.5-0.3c-0.8,0.1-1.6-0.5-1.8-1.2c0.4-0.3,0.6-1.3,0.6-3l-0.1-2.3l-0.2-0.2L266.3,49.8z M262.8,55.8
	c-0.1-1.3,0.5-1.9,1.7-2c-0.2,1.3-0.8,2-1.6,2H262.8z M266.8,58.4l0.3-0.1l0.9,0.2c-0.6,1.2-1,1.7-1.2,1.8l-0.1-0.1l0.4-0.6
	l-0.1-0.7L266.8,58.4L266.8,58.4z M279.4,59.5l0.6-0.1h0.5l0.1,0.8l0.3,0.3v0.1h-0.3C279.9,60.2,279.6,59.9,279.4,59.5L279.4,59.5z
	 M289.3,62.8c-1.2,0.2-2.4,0.7-3.4,1.3h-0.1c0-0.1,0.2-0.3,0.7-0.3v-0.5l-8.4,0.2c-2.1,0.1-4.1,0.4-6.2,0.8v0.2h0.3v0.2l-0.3,0.1
	c-0.3-0.1-0.6-0.2-0.9-0.2v-0.1l0.2-0.3v-0.2l-0.1-0.1l-1,0.1l-1.4-0.1c-1.3,0.1-2.1,0.3-2.7,1h-0.1l-1-0.8h-0.2
	c0.1,0.7-0.7,1-2.1,1.1h-0.2c-0.1,0-0.3-0.3-0.5-0.8h0.1l-0.2-0.2l-5.1,0.3l-0.2,0.2l0.1,3.2c0,0.1,0.3,0.3,0.8,0.4
	c1-0.4,2-0.7,3-0.8h0.3c1-0.1,1.9,0.2,2.6,0.9c-1-0.2-2.1-0.3-3.1-0.3h-0.6c-1,0.1-2.1,0.4-3,1v0.2l5.6,0.1l14.3-0.9h0.1
	c0.3-0.6,1-1,1.7-1.1h0.1v0.2c-0.8,0.2-1.2,0.4-1.2,0.6v0.1l0.1,0.1h0.1l0.1-0.1l0.9-0.1l1.8,0.1h0.2c0.3,0,0.7-0.3,0.8-0.6
	l-0.3-0.4v-0.1c0.3-0.1,0.8-0.7,1.2-1.8c0.5,0.1,0.8,0.3,0.8,0.6V66l-0.7,0.1v0.2l0.6,0.1l3.6-0.2l1.1-0.1c0,0.6,0.4,0.9,1,0.8v0.3
	l-0.3,0.1c-0.3,0-0.8-0.3-1.4-1h-0.1l-0.1,0.1l-0.3,0.5h-0.3l-0.7-0.6c-0.1,0-0.2,0.2-0.2,0.6l-0.9,0.1l-0.4,0.3
	c0,0.4,2.3,0.5,6.8,0.3l0.2-0.3v-0.3l-0.5-2.8l0.2-0.9C290.5,63,289.9,62.8,289.3,62.8L289.3,62.8z M264.3,65.3l1-0.3h0.1l0.1,0.1
	l-0.6,0.5l0.4,1v0.1c-0.8-0.5-1.3-1-1.3-1.4L264.3,65.3z M275.6,66.2c0-0.2,0.2-0.3,0.7-0.3c0.1-0.5,0.1-0.7,0.3-0.7h0.2
	c0.8,0,1.2,0.2,1.2,0.6v0.1l-1.1,0.1l-1.2,0.4V66.2z M266.7,67.9c0-0.3,0.4-0.5,1.2-0.6h0.2l0.3,0.3v0.2L266.7,67.9z M268.8,68
	c0.1-0.3,0.3-0.6,0.6-0.5h1v0.1c-0.1,0.2-0.3,0.3-0.7,0.3H268.8z M280.1,67.8l0.3-0.1h0.2l-0.3,0.3L280.1,67.8z M283.2,21.2
	c-1.5,0.3-2.2,0.5-2.2,0.8l0.2,0.2h0.1c0-0.2,0.1-0.3,0.2-0.3l0.8-0.1l-0.2,0.3v0.1l0.5,0.6l-0.9-0.2l-0.2,0.2
	c0,0.3-0.1,0.5-0.3,0.5v1.7c0.1,0.8,1.4,1.2,4,1l1-0.1c0.8,0,1.6-0.3,2.1-0.9l-0.2-0.2h-0.2l-2.1,0.5l-0.6-1.3
	c0.1-0.2,0.2-0.4,0.4-0.5c0.8,0.4,1.6,0.7,2.4,0.7l1.3-0.4v-0.2l-1.2,0.1l-0.2-0.2v-0.2l0.8,0.1l0.7-0.1l0.1-0.1l1.1,1.2v0.2
	l-0.8-0.6h-0.1l-0.1,0.1l0.1,0.3l-0.2,0.9c0.2,0.4,0.3,0.7,0.5,0.6l22.9-1.2c0.3-0.6,1-1,1.7-1.2h0.1l-0.1,0.3l0.3,0.3l-0.2,0.3v0.1
	l5.9-0.3l0.2-0.2l-0.3-4.6l-0.1-0.1l-1.8,0.2l-3.2,0.1l-1.7,0.1l-6.1,0.2l-3,0.3c-0.1,0-0.2,0.2-0.2,0.6l-1,1.7l-0.7,0.1
	c-0.3,0.1-0.7,0.2-1,0.5h-0.2l0.2-0.5l-0.3-0.4V22h0.1l0.1,0.1l1-0.1c0.4-0.2,0.6-0.4,0.6-0.7v-0.1l-0.1-0.1l-1.3,0.4h-0.1l-0.3-0.4
	c1.2-0.1,1.8-0.3,1.8-0.6v-0.1l-5.9,0.2l-2.5,0.1c-2,0-4,0.3-5.9,1c0-0.2-0.3-0.4-1-0.5l-0.8,0.1l-0.9,0.4c0-0.1-0.3-0.3-0.8-0.3
	h-0.1l-0.1,0.1l0.3,0.7v0.1h-0.6C284.2,22,283.7,21.6,283.2,21.2L283.2,21.2z M289.6,21.8l0.8-0.1l0.1,1.2
	C289.9,22.9,289.6,22.6,289.6,21.8L289.6,21.8z M299.2,21.5l1.2-0.1c0,0.6,0.2,0.8,0.6,0.8c0,0.3-0.5,0.5-1.4,0.6
	C299.5,22.9,299.3,22.4,299.2,21.5L299.2,21.5z M292.4,23.2c0-0.3,0.4-0.5,1.2-0.6h0.1v0.3l-0.2,0.3l-0.5-0.1l-0.6,0.1L292.4,23.2z
	 M307.1,21.9l0.7-0.1l-0.2,0.8c0,0.2,0.3,0.3,0.7,0.3c0,0.2-0.3,0.3-1.1,0.5c-0.3,0.1-0.7-0.1-0.8-0.4v-0.2l0.3,0.2h0.1l0.3-0.3
	L307.1,21.9z M286.4,23.4l0.9-0.4h0.1v0.2c-0.1,0-0.3,0.1-0.3,0.1c-0.1,0.1-0.1,0.2-0.1,0.3h-0.3L286.4,23.4L286.4,23.4z
	 M292.7,23.6h0.3l0.6,0.6h0.1L294,24l0.1,0.3l-0.3,0.3h-0.1l-0.8-0.1L292.7,23.6z M282.5,24.9l1.7,0.7v0.1H284
	c-0.9-0.2-1.4-0.4-1.4-0.7L282.5,24.9z M290.5,25.1l0.8-0.3l1.7-0.1c0,0.2-0.4,0.3-1.2,0.4l-1.1,0.1l-0.1,0.1V25.1z M301.3,27.3
	c-2.5,0.1-5,0.9-7,2.4c-0.7,0.8-1.2,1.2-1.7,1.2c-1.4,0.7-2.5,2.2-3.5,4.6c-1.3,4.4-1.9,7.6-1.7,9.7c0.1,0.8,0.3,1.2,0.6,1.2
	l0.1,0.7c0.1,2.2,0.8,4.3,1.8,6.3c2.1,3.6,4.2,5.3,6.4,5.2v0.2l-0.7-0.2l-0.2,0.2v0.2c2.3,1,4.9,1.4,7.4,1.4l1.4-0.1
	c0.8,0,1.7-0.3,2.2-0.9l1,0.2l0.7-0.1c1.2-0.3,2.1-0.9,2.8-1.9v-0.2h-0.1l-0.6,0.1v-0.2l0.6-0.1l1-0.1l0.3-0.3v-0.2l-1.4,0.2h-0.1
	c0-0.3-0.1-0.6-0.4-0.8l0.8-0.1l2.1-1.1v-0.2l-1.6-0.3v-0.1l0.2-0.2h0.2l1,0.6l0.4-0.3c0-0.5-0.3-0.7-1-0.8h-0.2l-1.6,0.3
	c-0.8-0.1-1.2-0.3-1.2-0.8l1.9-0.1v-0.3l-0.1-0.1l0.7,0.1c1.4,0.9,2.2,1.4,2.5,1.3v0.1c-0.6,0.1-0.9,0.2-0.9,0.4v0.1
	c0,0.1,0.3,0.3,0.9,0.4h0.1c1.2-2.3,1.8-4.1,1.7-5.7v-0.1c0-1.4-1-2.8-2.5-2.9v0.2c-0.4,0.9-0.8,1.8-1,2.8v0.3h-0.6
	c-0.4,0.1-0.8,0.3-1.1,0.8l-0.7-0.1l-1.4,1.9v0.6l-0.4,0.1l0.1,0.8l-0.2,0.2c0-0.3-0.1-0.6-0.4-0.8l-0.3,0.3
	c-0.7,0.3-1.1,0.6-1.1,0.8v0.2c2.2,0.2,3.3,0.5,3.3,0.8v0.1h-0.1l-2.5,0.9l-1.2-0.3v-0.1h0.1l0.6,0.2l0.2-0.2c0-0.3,0.3-0.6,1-0.8
	c0-0.3-0.9-0.3-2.8-0.3c-1.1,0-2.1,0.3-3,1l-0.2-0.2l-1,0.1l-0.2-0.2c0.6,0,0.9-0.1,0.9-0.3v-0.1l-0.9-0.1l-0.9,0.4l-0.3-0.7
	c-1.6-0.9-2.5-1.6-2.6-2.1l-0.6,0.1H296c-0.5,0.1-0.9-0.2-1-0.6c0.3,0,0.6-0.2,0.8-0.5v-0.3l-1.1-2l0.1-0.8h-0.5
	c-0.3,0.3-0.8,0.6-1.2,0.8h-0.1v-0.1l0.2-0.7l1.2-0.1l0.1-0.1l-0.3-0.6l0.2-0.6V47l-0.1-0.1c-0.3,0-0.6-0.1-0.6-0.2
	c0.5,0,0.7-0.1,0.7-0.3v-0.2c-0.1-0.7-0.3-1.3-0.6-1.9c-0.8-0.1-1.2-0.3-1.2-0.5v-0.1h0.1l0.1,0.1h0.3c0.2-0.3,0.5-0.4,0.8-0.4
	l-0.1-0.9c0-0.6,0.1-1.3,0.2-1.9c1.1-2.8,1.7-4.7,1.7-5.4v-0.1h0.6c0.4,0,1-0.5,1.7-1.3c0.9-0.1,1.3-0.6,1.2-1.7l-0.3-0.8h0.1
	l0.1-0.2h0.2v0.1l-0.1,0.1v0.1c0.4,0.9,0.7,1.3,0.8,1.3h0.3l0.2-0.2l-0.4-1.1l0.2-0.2h0.3l0.3,0.3v0.1l-0.1,0.8h0.1l0.1,0.1h0.3
	c0.3-0.3,0.6-0.6,1-0.6v0.6l0.2,0.2h0.6c0.8,0,1.7,0.2,2.4,0.7c0.7,0.8,1.7,1.1,2.7,1v0.1l-0.1,0.1v0.6c0.1,0.9,0.6,1.7,1.8,2.4
	l-0.1,0.6v0.5c0.3,0.5,0.9,0.8,1.5,0.7l0.9-0.1c2.1-0.4,3.1-1.2,3-2.2v-0.5c0-0.3-0.5-1-1.4-2l0.3-1.2l-1.2-0.4l0.3-0.5v-0.1
	c-0.1-0.7-0.8-1.4-2.3-2.1c-0.1,0.8-0.2,1.2-0.4,1.2h-0.3v-0.1l0.3-1.6c-2.6-1.8-5.8-2.6-9-2.3L301.3,27.3z M299.9,29.8l0.8,0.2
	c0,0.2-0.3,0.5-0.8,0.7L299.9,29.8z M291.4,34.7l0.6-0.1h0.1l0.8,0.6h0.6l0.1-0.1c0,0.3-0.3,0.5-1.1,0.8c-0.7,0.1-1-0.3-1-0.8
	L291.4,34.7z M312.1,33.8l0.7-0.3h0.1l0.1,0.1c0.3,0.8,0.6,1.1,1.1,1.1l-0.4,0.3l-0.7-0.1h-0.5l-0.4-1.1L312.1,33.8z M309.2,34.8
	l0.8-0.3c0.6,0.1,0.8,0.3,0.8,0.4v0.5c-0.6,0.1-0.8,0.3-0.8,0.5h-0.1l-0.1-0.1l0.1-0.3v-0.1L309.2,34.8L309.2,34.8z M312.7,35.6
	c0.2,0.2,0.5,0.3,0.8,0.3h0.2l1.1-0.4l0.1,0.8l-1.1,0.1c-0.4,0-0.8-0.1-1.2-0.4L312.7,35.6z M288.9,38.6c0-0.5,0.3-0.8,1.2-1.1v0.1
	h0.2v0.6l1,0.8c0,0.3,0.4,0.4,1.2,0.4v0.1c-0.9,0.3-1.3,0.9-1.3,1.5l-2.1,0.1v-0.1l0.6-1l-0.3-0.4v-0.1c0.7-0.2,1-0.4,1-0.6v-0.1
	l-0.2-0.2c-0.3,0.1-0.7,0.2-0.9,0.5H289L288.9,38.6z M291.9,41.6c0-0.5,0.3-0.8,0.8-1v0.1h0.2v0.1c-0.3,0.2-0.6,0.6-0.5,1l-0.6-0.1
	V41.6z M289.9,42.2h0.2c0.6,0.1,1.1,0.3,1.5,0.7l-0.3,0.1c-0.1-0.3-0.5-0.5-0.8-0.4h-0.2l-0.1,0.1L289.9,42.2z M289.2,44.6
	c0-0.3,0.8-0.6,2.5-0.8l-0.2,0.9l-0.6-0.2l-2.3,0.3c-0.2,0-0.3-0.1-0.3-0.2v-0.1h0.2L289.2,44.6z M288.5,46.2c0-0.1,0.1-0.2,0.3-0.3
	l0.1-0.1c0.9-0.1,1.4-0.1,1.6-0.3v0.2c-0.4,0.3-0.8,0.4-1.3,0.6h-0.1L288.5,46.2z M289.6,48.8l0.4-0.3c1.3-0.1,2.4,0.6,3.2,2H293
	c-0.5-0.1-0.9-0.3-1.2-0.6c-0.4,0.6-1,0.9-1.7,1l-0.6-0.6v-0.1l0.7,0.3h0.1l0.2-0.2V50C289.9,49.5,289.6,49.1,289.6,48.8L289.6,48.8
	z M311.1,48l-0.3,0.3v0.1l0.3,0.3h0.1l1-0.3v-0.1l-0.7-0.4H311.1z M289.3,50.8l0.5,0.1c0,0.1-0.2,0.3-0.6,0.3L289.3,50.8L289.3,50.8
	z M290.9,51.3h0.2l0.7,0.3v0.1l-0.1,0.1v0.3c0,0.2,0.6,0.3,1.7,0.3v0.1c-0.9,0.2-1.8,0.6-2.5,1h-0.1l0.2-0.3l-0.6-0.6v-0.2
	c0.5,0,0.7-0.1,0.7-0.3v-0.1L290.9,51.3z M296.5,54.2c0.3,0,0.6,0.5,0.9,1.5l1.6-0.2l0.8,0.1v0.1l-0.8,0.3l-2.6-0.2h-0.1v-0.1
	L296.5,54.2z M302.5,56.6h0.3c0.5,0.5,1.1,0.8,1.7,0.8c-0.4,0.8-0.8,1.3-1.2,1.3c-0.1-0.7-0.4-1.4-0.9-1.9V56.6z M306.1,58.1
	c0-0.6,0.3-0.9,1.2-1.1h0.1c0,0.6-0.3,1-1.1,1.2L306.1,58.1L306.1,58.1z M304.9,58.6l1.1,0.1l0.4-0.1h0.1c-0.1,0.2-0.2,0.4-0.4,0.5
	l-1.2-0.1h-0.1v-0.2L304.9,58.6z M306.2,61.9l-0.4,0.1c-7.9,0.6-11.9,1-11.9,1.3c-0.6-0.4-1.4-0.6-2.2-0.6l-5.4,1
	c-1-0.1-1.9-0.2-2.8-0.6v0.2l0.1,0.1c-0.3,1.2-0.5,2.5-0.5,3.8v0.3c0,0.3,0.2,0.6,0.5,0.8l1.9-0.1l24.9-1.7l2.8,0.1h0.2l0.3-0.3
	l0.9,0.3h0.6c0.3-0.1,0.4-0.3,0.4-0.6c0.4,0.4,1,0.6,1.6,0.6l0.9-0.1l3.8-0.6h0.3c0.3,0,0.3-0.5,0.3-1.5c-0.1-0.8-0.2-1.2-0.4-1.2
	l0.3-0.9l-0.1-1h-0.2l-1.6-0.1c-0.3,0.1-0.4,0.2-0.4,0.3v0.3l0.1,0.1l0.9-0.3h0.1l-0.3,0.8l0.5,0.6v0.1l-0.1-0.1
	c-1.4-0.1-2.1-0.3-2.1-0.5v-0.1l0.1-0.1l0.8,0.1h0.3l0.1-0.1c0-0.1-0.3-0.3-0.9-0.4l0.1-0.7v-0.1l-0.1-0.1c-0.8,0.1-1.1,0.4-1.1,1.1
	c-0.9-0.6-1.9-0.8-3-0.8h-0.3c-0.6,0-1,0.3-1.3,0.8c-0.7-0.5-1.4-0.7-2.3-0.7h-0.1l-3.9,0.4H306.2z M298.4,64.4c0-0.5,0.3-0.9,1-1.1
	l0.3,0.7c-0.2,0.2-0.5,0.3-0.8,0.4H298.4z M310.9,64.1l1,0.3v0.1c-0.3,0.6-0.8,1-1.4,1v-0.2l0.6-0.7l-0.2-0.2v-0.1L310.9,64.1z
	 M318,65.2c0.1-0.4,0.1-0.6,0.3-0.6h0.5c0.2,0.1,0.4,0.3,0.6,0.8l-0.2,0.2h-0.2C318.5,65.7,318.2,65.5,318,65.2z M300.7,65.9v-0.1
	l1.8,0.3h0.2c0.3,0,0.7-0.1,1-0.4v0.5c-1.2,0.2-1.9,0.4-1.9,0.7C301.3,66.8,300.9,66.5,300.7,65.9L300.7,65.9z M312,19.8l-0.1,1.2
	h-0.2l-0.1-0.1c-0.1-0.6-0.2-0.9-0.4-0.9h-0.3l-0.1,0.1c0,0.6,0.1,1.2,0.3,1.8l1.2-0.4l0.5,0.4V22l-1.1,0.3l-0.7-0.1l0.1,2.6
	l7.4-0.3c1.1-0.1,1.7-0.5,1.9-1c0.1,0,0.4,0.3,0.8,0.9l1-0.1l17-0.8c2.4-0.1,4.8-0.5,7.2-1l0.3,0.6l2.1-0.2c0.3,0,0.6-0.4,0.5-1.2
	l-0.1-0.8c-0.6-2-1.5-3-2.8-2.9l-0.8-0.1c-0.6,0.1-1.2,0.4-1.8,0.8c0-0.3-0.6-0.4-1.9-0.5l-8,0.6c-0.6,1-1.1,1.4-1.4,1.4l0.3-1.4
	l-6,0.3L312,19.8z M336.4,21.6c0.1-0.5,0.1-0.7,0.3-0.7c0.4,0.5,0.8,0.8,1.2,0.8v0.2l-0.1,0.1C337.2,22,336.8,21.8,336.4,21.6
	L336.4,21.6z M333.6,22.1l1.2,0.4l0.9-0.1l0.3,0.7l-0.2,0.2h-0.1c0-0.5-0.1-0.7-0.3-0.7l-1.2,0.3h-0.6V22.1z M325.7,25.8
	c-1.4,0.1-3,0.2-4.4,0.5c-2.4,0.1-3.7,1.6-3.9,4.3l0.1,0.7c0.1,0.6,0.3,1.1,0.6,1.6c-0.3,0.3-0.6,0.9-0.5,1.4
	c0.2,1.2,0.3,1.8,0.6,1.8c0.5-0.3,0.8-0.5,0.8-0.6c0-0.3-0.3-0.7-0.8-1.1v-0.3c0.4,0,0.8-0.1,1.1-0.4h0.1c0.1,0.8,0.4,1.1,1.1,1.1
	l-1.2,1v0.1l0.3,0.3l0.3-0.3h0.1l0.3,0.8v0.1l-2.1-0.3l-0.2,0.6l0.6,7.1l-0.1,0.8c0.7,0.1,1,0.1,1,0.3c-0.7,0.2-1,0.3-1,0.5l0.2,3.5
	l0.3,1.6c-0.1,0-0.3,0.4-0.3,1.2l0.3,0.7l0.4-0.1c0.7,0.1,1,0.3,1,0.5v0.3l-0.3,0.1l-1-0.3l-0.2,0.2V55c0.1,0.6,0.2,0.8,0.4,0.8
	c0.3-0.6,0.8-0.9,1.4-1.1l0.3,0.1v0.1l-2,1.1c0.1,1.4,0.6,2.3,1.5,2.8l0.9-0.8h0.1v0.3c-0.6,0.1-0.8,0.3-0.8,0.5s0.3,0.3,0.9,0.4
	l0.8-0.3c0.7-0.7,1.6-1.2,2.5-1.2c-0.1-0.6,0.1-1.1,0.6-1.5c0-0.2-0.3-0.3-1-0.3l-1.2-1.2h-0.1c0,0.3-0.1,0.4-0.6,0.6v-0.1l-0.1-0.1
	c0.5-0.4,1.1-0.7,1.8-0.9l-0.4-0.4c0.2-0.7,0.4-1,0.8-1l0.5,0.1h0.1v-0.6l-0.5-5.5l0.1-1.4c0-0.5,0.6-0.7,1.9-0.8
	c1.2,0,2.3,0.3,3.4,0.8c2.3,1.4,3.7,2.1,3.9,2.1v0.3h-0.1l-0.7-0.1h-0.1l-0.1,0.1V48c2.1,2.5,3.2,3.9,3.2,4.1l1.4-0.6h0.3
	c-0.8,0.4-1.1,0.9-1,1.4v0.2c0,1,0.7,1.8,1.7,1.9l-0.1,0.5c0,0.5,0.6,0.9,1.5,1.4l-0.2,0.3c0,0.1,0.3,0.3,1,0.6l0.8-1h0.6l0.3,0.8
	L344,57c1.2-0.3,1.9-0.7,1.9-1.2v-0.1c-0.1-0.8-0.6-1.6-1.2-2.2v-0.1h0.3V53l-0.3-0.3c-1-0.1-1.6-0.3-1.6-0.5l0.6-0.7v-0.3l-0.1-0.3
	c-0.9-2-3.1-4.4-6.6-7.2c0.1-0.6,0.3-0.9,0.4-0.9h0.2l0.3,0.4c0.7-0.1,1.3-0.9,1.9-2.5l0.8,1h0.1c0.1,0,0.2-0.2,0.3-0.6
	c2.1-1.7,3.2-4.2,2.9-6.8l-0.1-0.8c-0.1-2.3-1.4-4.3-4.1-6C338.3,25.8,333.6,25.4,325.7,25.8z M335.4,28.3l1.5,0.5
	c-0.1,0.2-0.2,0.4-0.4,0.5c-0.3-0.3-0.8-0.5-1.2-0.5v-0.1L335.4,28.3z M336.6,30.3c1.4-0.3,2.3-0.8,2.7-1l0.8,1.8
	c-0.5,0.1-1,0.3-1.4,0.6c0-0.6-0.7-1-2-1.2V30.3z M324.2,31.4c2.5-0.4,3.8-0.8,3.8-1.2h0.1v0.5c4.5,0.2,7.2,0.6,8.1,1.2
	c0.1,0.7,0.6,1.2,1.4,1.7c-0.4,0.8-0.7,2.4-0.8,4.7v0.1l-0.6-0.1h-0.1l-1.4,0.8v0.3l0.9-0.1c0,0.1-0.2,0.3-0.6,0.5l-1.9-0.3
	l-0.2,0.2v0.1l0.3,0.3h0.1l-0.1,0.3v0.1l1.2-0.1l0.3,0.3V41l-1-0.2h-0.3l-0.2,0.2v0.2c0.1,0.1,0.3,0.3,0.6,0.4
	c0.4-0.1,0.8-0.3,1.1-0.6v0.3c0,0.6,0.4,0.8,1.2,0.8c-0.1,0.3-0.5,0.6-0.9,0.6h-1.7c-0.1-0.9-0.4-1.3-0.8-1.3
	c-0.2,0-0.3,0.1-0.3,0.3l0.1,1.1h-0.5v0.3l0.2,0.2l0.6-0.5h0.2c0,0.5-0.3,0.7-0.9,0.8h-0.3c-0.3,0-0.6-0.6-0.7-2v-0.2h0.1l0.1,0.1
	h0.3c0.5-0.1,1-0.4,1.2-0.8c-0.6-0.6-1.5-0.9-2.4-0.8l-5.9,0.4h-0.1c-0.1-0.8-0.4-1.7-0.8-2.5c0-0.1,0.2-0.3,0.6-0.3l-0.3-0.7
	l0.1-1.2c0-0.3-0.1-0.4-0.3-0.4c0.3-1,0.5-1.9,0.4-3V31.4z M334.4,30.7l0.3-0.3h0.5c0.6,0,0.9,0.1,0.9,0.3l-0.3,0.1L334.4,30.7z
	 M320.6,33.4c0.3-0.9,0.8-1.4,1.4-1.4h0.2c-0.6,0.6-0.9,1.4-0.9,2.2C321,34.1,320.8,33.8,320.6,33.4z M320,37.4c0-0.3,0.6-0.6,1.8-1
	h0.2c0.1,0.3,0.2,0.6,0.5,0.8l-2.3,0.2H320l-0.1,0.1L320,37.4z M341,38.1c0.5-0.6,1.2-1,2-1.1h0.1v0.1l-0.1,0.1
	c-1,0.3-1.6,0.7-1.5,1.1v0.1l0.1,0.1h-0.1L341,38.1z M319.7,39.3c0.1-0.3,0.2-0.6,0.4-0.6l0.9,0.1l-1,1.1
	C319.9,39.9,319.7,39.7,319.7,39.3L319.7,39.3z M321.8,46.6l0.9-0.1V47l0.3,0.7h-0.1l-0.1,0.1c-0.4-0.3-0.8-0.6-1-1.1L321.8,46.6z
	 M319,50.4l0.2-0.2h0.1c0.1,0,0.3,0.2,0.5,0.6l-0.2,0.2L319,50.4z M321.7,55.4h0.1c0.3,0.1,0.6,0.4,0.6,0.8c0,0.3-0.1,0.6-0.3,0.7
	l-0.3-0.6l-1.1,0.4h-0.1v-0.5C321.4,56.2,321.7,55.9,321.7,55.4L321.7,55.4z M323.2,56.8c0.1-0.3,0.4-0.5,0.8-0.5h0.2l0.2,0.2v0.6
	h-0.1L323.2,56.8z M343.1,59.9l-14.4,1.4l-1.2-0.1v0.2l1.4,0.7l-0.2,0.2h-0.3l-0.7-0.6c-0.4,0.8-0.8,1.3-1.4,1.3v0.1l0.5,0.8
	l-0.6,1.7v0.1l8.3-0.2l4.3-0.2l7.9-0.6v-0.2h-0.2v-0.1l0.9-0.3h0.1l-0.2,0.6l0.2,0.2h0.2c0.6-0.1,1-0.5,1.4-0.9h0.2
	c0,0.6,0.4,0.8,1.2,0.8h0.6l0.2-0.2l-0.1-3.3l-0.2-0.2c-0.3,0.1-0.6,0.1-0.8,0.4h-0.1l-0.2-0.2v-0.1l0.1-0.1
	c0.8-0.3,1.2-0.5,1.2-0.6v-0.5l-0.2-0.2h-0.5c-0.3,0.3-0.6,0.6-1.1,0.8h-0.1v-0.1l0.1-0.1V60c0-0.3-1.4-0.4-4.1-0.3L343.1,59.9z
	 M323.8,61c-1.7,0.2-3.4,0.6-5,1.2v-0.1c0-0.1,0.3-0.3,1.1-0.5v-0.2l-6.9,0.3l-0.2,0.2v0.3l0.4,3.5l-0.1,0.7v0.1l0.1,0.1l0.4-0.1
	l4.1-0.1c0.8-0.1,1.1-0.4,1.1-0.8h0.1c0.6,0.5,1.4,0.7,2.2,0.7c1.2-0.1,2.3-0.6,3.2-1.2v0.3c0.5,0,1-0.2,1.3-0.6v-0.1l-0.1-0.1
	l-0.6,0.1l0.1-0.9v-0.2l-1.4-0.3l1.7-2.3l-0.2-0.2L323.8,61z M314.2,63c0-0.3,0.2-0.6,0.8-0.7c0.8,0,1.2,0.1,1.2,0.3L314.2,63
	L314.2,63z M321.6,63.5c0-0.1,0.2-0.2,0.6-0.3h0.1l-0.3,1c0.1,0.3,0.3,0.6,0.6,0.6V65l-0.8,0.1h-0.1v-0.6c0-0.2-0.3-0.3-0.8-0.3
	c0-0.1,0.3-0.3,0.8-0.5h0.1L321.6,63.5z M328.2,63.8l1.4-0.2c0.3,0,0.6,0.1,0.7,0.3c-0.4,0.5-1,0.8-1.7,0.9h-0.1L328.2,63.8z
	 M341.1,18.3l-0.2,0.2l0.1,1.6l0.1,1L341,22l0.1,1.1c0,0.1,0.1,0.2,0.5,0.3l2.6-0.3l0.9,0.2l0.2-0.2v-0.2c-0.6-0.1-0.9-0.1-0.9-0.3
	l1.4-0.1l0.2-0.2c0-0.3-0.6-0.5-1.9-0.7c0-0.1,0.3-0.3,0.8-0.4c0.9,0.1,1.4,0.4,1.4,1l-0.6,0.8v0.1l2.3-0.1l0.1-0.1
	c-0.3-0.7-0.8-1.4-1.4-2l-3-0.6h-0.1c-0.2,0.7-0.3,1-0.5,1c0-0.5-0.1-0.7-0.3-0.7l-1.2,0.1c0.2-0.3,0.3-0.7,0.4-1h0.2l0.8,0.6
	l0.3-0.3l-0.8-0.6v-0.1l0.1-0.1l1.2,0.1h0.1c0.1,0,0.3-0.2,0.4-0.7c0.5,0.1,0.9,0.3,1.2,0.6c1.4,1.5,2.4,2.3,3.2,2.2h0.1l0.2-0.2
	l-0.8-0.8v-0.1l2.6-0.3h0.1l-0.2,0.2l0.3,1.1l0.7-0.1h0.1c-0.2,0.3-0.4,0.6-0.4,0.9v0.2l0.3,0.3l0.1-0.1l2.8,0.2h0.5
	c0.1-0.7,0.1-1,0.3-1h0.1l0.3,0.2l0.9-0.3v0.1l0.1,0.1c0,0.1-0.1,0.2-0.4,0.3l0.2,0.2l1-0.1l0.2-0.2l-0.1-1.1l0.8,0.2h0.3
	c0.4-0.4,0.9-0.7,1.4-0.9h0.6V20l-0.5-0.6v-0.1l0.8-0.1h0.1c0.5-0.1,1,0.3,1.2,0.8c-1.2,0.1-2.5,0.8-4.1,2.3v0.1h0.1l0.1-0.1
	l1.1-0.1l7.6-0.1h0.1c1.6-0.1,3.1-0.3,4.6-0.9c0.6,0.5,1.3,0.8,2.1,0.7l1.1-0.1l0.2-0.2l-0.2-3.6c0-0.5-0.1-1-0.4-1.3l-2.3,0.2
	l-0.7,0.1l-10.3,0.3h-0.3c-2.1,0.1-4.1,0.5-6.1,1.2c0-0.4-0.5-0.7-1.3-0.8h-0.6l-0.7,0.3l-2.8,1.6c-0.6-0.7-1-1.1-1.2-1.1L349,19
	h-0.3l0.2-0.5l-1.2-0.6L347,18l-0.9,0.8c0-0.5-0.8-0.7-2.4-0.8l-2.1,0.2L341.1,18.3z M346.6,18.5l0.3-0.1l1.2,0.5
	c0,0.6,0.3,0.8,0.7,0.8v0.1c-0.3,0.1-0.6,0.2-0.8,0.5h-0.2v-0.1C347.1,19.5,346.6,18.9,346.6,18.5L346.6,18.5z M353.3,18.5l0.6-0.3
	h0.2l0.7,0.6l-1,0.5l-0.5-0.6V18.5z M352.9,19.2l0.8,0.2v0.1l-0.3,0.1c0,0.1,0.1,0.2,0.3,0.2V20h-0.5c-0.3-0.1-0.5-0.3-0.6-0.6
	L352.9,19.2z M371.4,19.4c-0.1-0.7,0.3-1.1,1.2-1.3c0.1,0,0.3,0.2,0.3,0.6C372.9,18.9,372.4,19.1,371.4,19.4L371.4,19.4z
	 M354.2,20.2c0.1-0.4,0.6-0.7,1-0.8h0.2c-0.3,0.3-0.4,0.8-0.5,1.2h-0.1C354.7,20.4,354.5,20.3,354.2,20.2L354.2,20.2z M350.3,21.6
	c-0.3,0.1-0.6,0.1-0.8,0.4l1,0.6h0.2l0.2-0.2V22l-0.3-0.3L350.3,21.6z M365.6,24.3c-1.2,0.1-2.5,0.3-3.7,0.6V25l0.6,0.3l-0.2,0.2
	h-0.3c-0.6,0-1-0.3-1.2-0.8h-0.2c0,0.3-0.2,0.5-0.6,0.5c-0.6-0.3-1.3-0.4-1.9-0.5c-0.8,0.1-1.6,0.3-2.2,0.7c-1.3-0.3-2.6-0.4-4-0.3
	l-1.4,0.1c-1.9,0.1-3.2,0.9-3.7,2.5c0.1,0.3,0.2,0.4,0.3,0.4l1-0.1l0.1-0.1c0.5,0.2,0.7,0.5,0.7,0.6l-0.4,0.3l-1.2-0.4h-0.5
	l-0.2,0.2l1,0.8v0.3c-0.7,0.4-1,0.8-1.1,1l0.4,6.3l0.1,2.8l-0.1,1.4l0.8,0.3h0.1c1.3-1.7,2.2-2.6,2.7-2.6v-0.1l-0.6-0.6v-0.1
	c0.5,0,0.7-0.1,0.7-0.3c-0.1-0.3-0.4-0.4-0.7-0.4v-0.1h0.1c0.9,0.3,1.4,0.8,1.4,1.5v0.3c0,0.4-0.1,0.8-0.4,1l-1.2-0.4l-0.7,0.1
	c-0.3,1.4-0.7,2.2-1,2.2h-0.2l-0.8-0.1V42l-0.1,0.1l0.1,0.7l0.4,1.7l-0.1,1.2v0.1l1.6,0.1c1-0.1,2.1-0.4,3-0.8V45l-0.2-0.2
	c0-0.4,0.2-0.8,0.5-1h0.3l0.8,0.6l0.4-0.5l-0.1-1l0.2-0.2l2.1-0.1l6.6-0.6l2.4,0.1v-0.1l-0.1-0.7c0-0.6,0.4-1,1.4-1.2h0.2
	c-0.6,0.7-1,1.2-1,1.7v0.1l0.2,0.2l1.2-0.1c1.9-0.1,2.9-0.9,2.8-2.4v-0.1c0-0.5-0.2-0.9-0.5-1.2c-1-1-2.6-1.4-5-1.3
	c-1.8,0.1-3.6,0.6-5.2,1.2v0.2c0.6,0,1.2,0.1,1.7,0.3v0.1h-0.2c-0.2,0.6-0.4,0.9-0.6,1h-0.2l-0.1-0.1v-0.1l0.1-0.1v-0.2l-1.3-0.8
	l0.1-0.3v-0.1l-1,0.3c-1.1-0.3-2.2-0.5-3.3-0.5l-0.7,0.1l-0.1,0.1c-0.3,1.2-0.8,1.9-1.2,1.9h-0.1c0.6-1,0.8-2,1-3.1
	c-0.1-0.8-0.3-1.6-0.8-2.2c0.6,0,0.9-0.4,0.8-1l-0.3-2.7c0-0.6,0.6-0.8,1.9-0.9l5.2,0.1h0.2c0.9,0,1.7-0.3,2.5-0.8h0.1
	c0,0.1,0,0.3-0.1,0.3c-0.1,0.1-0.2,0.1-0.3,0.1v0.2l4.5-0.1c2.1-0.1,3.3-0.8,3.5-2.2V27c-0.7,0.1-1.2-0.6-1.4-1.7v-0.2h0.2l0.6,0.3
	l0.2-0.2V25C369.6,24.5,368,24.3,365.6,24.3L365.6,24.3z M347.7,26.5c0.3-0.4,0.9-0.7,1.4-0.6l2.1,0.3v0.1l-0.6,0.1l-2.8,0.1
	L347.7,26.5z M359.9,25.6l1.5,0.3V26l-0.2,0.2l-1.5-0.3v-0.1L359.9,25.6z M356.5,27.4l0.6-0.1l0.7-0.1c0.2,0,0.3,0.1,0.3,0.6h0.2
	v-0.2h0.1v0.1c-0.3,0.4-0.8,0.7-1.3,0.8c-0.1-0.6-0.3-0.9-0.6-0.9V27.4z M348.6,30l0.7,0.1h0.1l0.1-0.1l0.1,1c-0.7-0.1-1-0.3-1-0.5
	V30z M350.8,41.1c0.4,0,1.2-0.5,2.4-1.4l0.6,0.3c0,0.1-0.3,0.3-0.9,0.4c0,0.3,0.2,0.6,0.5,0.8l0.9-0.1v0.2c0,0.1-0.2,0.3-0.6,0.5
	l-1.2-0.1h-0.1l-0.1,0.1l0.3,0.6v0.1l-1.2-0.1v0.1l-0.1,0.1v0.6l-0.8-0.3v-1.7v-0.1H350.8z M360.5,40.2l0.3-0.1l1.5,0.7h0.1
	c0,0.5-0.3,0.9-1.1,1.1h-0.1v-0.1l0.1-1C361.2,40.4,360.9,40.2,360.5,40.2L360.5,40.2z M352.3,40.9c-0.6,0-1.1,0.3-1.4,0.8v0.2
	l0.9-0.1c0.3,0,0.6-0.1,0.7-0.3V41L352.3,40.9z M353,45.3c-0.5,0.7-1.5,1.1-3.1,1.2l-1.1,0.1c-0.5,0.1-1,0-1.4-0.1v0.1l-0.1,0.1v0.6
	l0.6,0.6c-0.3,1-0.5,2.1-0.4,3.1l0.1,1.4c0.1,1.2,0.3,2.3,0.6,3.4c0.1,1.3,1.9,1.8,5.7,1.7l2-0.1c1.6-0.1,3.1-0.3,4.6-0.8
	c2.1,0.3,4.3,0.4,6.5,0.3l1.6-0.1c2.9-0.1,4.2-1.3,4.1-3.4l-0.1-0.6c-0.8-1.2-2.7-1.8-5.7-1.7l-3.4,0.2l-0.3,0.5V52l-1.8-0.1h-0.5
	c-0.6,0-0.9,0.2-1,0.5c-1.5-0.4-3-0.5-4.5-0.3c-0.8,0.1-1.6-0.5-1.8-1.2c0.4-0.3,0.6-1.3,0.6-3l-0.1-2.3l-0.2-0.2H353z M349.5,51.3
	c-0.1-1.3,0.5-1.9,1.7-2c-0.2,1.3-0.8,2-1.6,2H349.5z M353.4,53.9l0.3-0.1l0.9,0.2c-0.6,1.2-1,1.7-1.2,1.8l-0.1-0.1l0.4-0.6
	l-0.1-0.7L353.4,53.9L353.4,53.9z M366.1,54.9l0.6-0.1h0.5l0.1,0.8l0.3,0.3v0.1h-0.3C366.7,55.7,366.3,55.3,366.1,54.9L366.1,54.9z
	 M376,58.2c-1.2,0.2-2.4,0.7-3.4,1.3h-0.1c0-0.1,0.2-0.3,0.7-0.3v-0.5l-8.3,0.2c-2.1,0.1-4.1,0.4-6.2,0.8v0.2h0.3v0.2l-0.3,0.1
	c-0.3-0.1-0.6-0.2-0.9-0.2v-0.1l0.2-0.3v-0.2l-0.1-0.1l-1,0.1l-1.4-0.1c-1.3,0.1-2.1,0.3-2.7,1h-0.1l-1-0.8h-0.2
	c0.1,0.7-0.7,1-2.1,1.1H349c-0.1,0-0.3-0.3-0.5-0.8h0.1l-0.2-0.2l-5.1,0.3l-0.2,0.2l0.1,3.2c0,0.1,0.3,0.3,0.8,0.4
	c1-0.4,2-0.7,3-0.8h0.3c1-0.1,1.9,0.2,2.6,0.9c-1-0.2-2.1-0.3-3.1-0.3h-0.6c-1,0.1-2.1,0.4-3,1v0.2l5.6,0.1l14.3-0.9h0.1
	c0.3-0.6,1-1,1.7-1.1h0.1v0.2c-0.8,0.2-1.2,0.4-1.2,0.6v0.1l0.1,0.1h0.1l0.1-0.1l0.9-0.1l1.8,0.1h0.2c0.3,0,0.7-0.3,0.8-0.6
	l-0.3-0.4v-0.1c0.3-0.1,0.8-0.7,1.2-1.8c0.5,0.1,0.8,0.3,0.8,0.6v0.1l-0.7,0.1v0.2l0.6,0.1l3.6-0.2l1.1-0.1c0,0.6,0.4,0.9,1,0.8v0.3
	l-0.3,0.1c-0.3,0-0.8-0.3-1.4-1h-0.1l-0.1,0.1l-0.3,0.5h-0.3l-0.7-0.6c-0.1,0-0.2,0.2-0.2,0.6l-0.9,0.1l-0.4,0.3
	c0,0.4,2.3,0.5,6.8,0.3l0.2-0.3v-0.3l-0.5-2.8l0.2-0.9C377.2,58.5,376.6,58.2,376,58.2L376,58.2z M351,60.8l1-0.3h0.1l0.1,0.1
	l-0.6,0.5l0.4,1v0.1c-0.8-0.5-1.3-1-1.3-1.4L351,60.8z M362.4,61.7c0-0.2,0.2-0.3,0.7-0.3c0.1-0.5,0.1-0.7,0.3-0.7h0.2
	c0.8,0,1.2,0.2,1.2,0.6v0.1l-1.1,0.1l-1.2,0.4V61.7z M353.4,63.4c0-0.3,0.4-0.5,1.2-0.6h0.2l0.3,0.3v0.2L353.4,63.4z M355.6,63.5
	c0.1-0.3,0.3-0.6,0.6-0.5l0.9-0.1v0.1c-0.1,0.2-0.3,0.3-0.7,0.3L355.6,63.5z M366.9,63.3l0.3-0.1h0.2l-0.3,0.3L366.9,63.3z
	 M382.9,16.2l-15,0.8l-0.1,0.1l0.3,2.7v2.1l0.1,0.1l0.1-0.1l5.3-0.1l1.8-0.2v-0.2c-0.5-0.1-0.7-0.3-0.7-0.4v-0.3
	c1.2,0.2,1.9,0.6,2.2,1l0.8-0.1l13.8-0.7l13.8-0.6V20l0.1-0.1l-0.3-4.8l-0.9,0.3l-3.2-0.2h-0.6c-0.4,0-0.8,0.1-1.1,0.4l0.4,0.9v0.2
	c-0.4,0-0.9-0.4-1.4-1.3l-8,0.4c-0.8,0-1.6,0.3-2.2,0.7c-0.3-0.3-0.9-0.6-1.4-0.5l-0.8,0.1c-1.7,0.3-2.5,0.7-2.4,1h-0.1
	C383.1,16.5,383,16.2,382.9,16.2L382.9,16.2z M374.7,17.6l1,0.2v0.1l-0.4,0.7h-0.2c-0.1,0-0.3-0.2-0.3-0.7L374.7,17.6z M369.6,19.2
	l1-0.3l0.1,0.8l-0.8,0.1l-0.2-0.2L369.6,19.2z M394.6,18.9l1.2-1l0.3,0.6c-0.3,0.4-0.8,0.6-1.2,0.6L394.6,18.9z M397.4,19.3l1.4-0.6
	l0.1,0.8h-0.5l-1.2-0.1c-0.2,0-0.3,0.3-0.3,0.7h-0.2l-0.1-0.1l0.2-0.8L397.4,19.3L397.4,19.3z M381.3,21c0.3-0.6,0.7-0.8,1-0.8
	l0.5,0.2c0,0.3-0.3,0.6-1,0.6H381.3z M392.6,22.7l-3.5,0.3l-1.4,0.1l-1.4,0.2v-0.1H386c0.1,0.7-0.3,1-1.1,1.2l-0.3-0.6l-2.2,1.2
	h-0.1l0.1-0.3c0-0.2-0.3-0.5-1-0.8l0.2-0.3v-0.1l-0.1,0.1l-4.4,0.1c-1,0.1-2.1,0.3-3,0.6c-0.6,0.4-0.8,1.2-0.8,2.3V27
	c0.1,0.3,0.1,0.6,0.3,0.6c0.1,0.9,1.4,1.4,4.1,1.4l1.4-0.1c2.6-0.1,4.1,0,4.7,0.3l0.5,11.5c0.1,1.7,0.4,3.2,0.8,4.8
	c-0.3,0.8-0.4,1.6-0.4,2.4c0.1,0.9,0.5,1.7,1.1,2.2h-0.5c-0.5,0-0.7,0.3-0.6,1l0.1,0.7c0.1,2.1,1.3,3.5,3.6,4h0.5
	c0.8-0.1,1.6-0.6,2.1-1.4l-0.2-0.2H390l-1.4,0.6h-0.1l0.4-0.6c0-0.1-0.2-0.3-0.6-0.3v-0.1h0.3l2.5,0.1c0.3,0,0.6-0.6,0.5-1.7
	c-0.1-0.4-0.3-0.8-0.5-1.2c0.2,0,0.3-0.1,0.3-0.3l-0.1-1.4l-0.1-0.1l-1,0.3c-0.3,0-0.6-0.1-0.7-0.4v-0.1h0.1l0.1,0.1h0.1l1.4-0.6
	l-1.1-19.9l0.1,0.1l2.3-0.5c0.7-0.1,1.1-0.6,1.2-1.7c0.9,0.4,1.8,0.7,2.8,0.8v0.1c-0.6,0-0.9,0.2-1,0.5V28l0.2,0.2l0.8-0.1
	c1.5-0.1,2.3-0.3,2.2-0.7v-0.1l-0.7,0.1l-0.8,0.1v-0.1h-0.2v-0.2l0.6-0.1l1.7,0.3c0.8-0.6,1.2-1.5,1.2-2.4v-0.3
	C400.6,23.1,398,22.5,392.6,22.7L392.6,22.7z M388.4,25.2c-0.1-0.8,0.7-1.4,2.3-1.9c-0.6,1.9-1.2,2.8-2,2.8h-0.3V26l0.3-0.1
	L388.4,25.2z M385.1,25.5c0-0.1,0.2-0.3,0.6-0.3l1.2,0.3c0,0.3-0.3,0.6-1,0.6h-0.2l0.1-0.6H385.1z M396.3,26
	c0.3-0.5,0.8-0.8,1.3-0.8l0.3,0.1c-0.5,0.6-0.9,1-1.2,1L396.3,26z M380.2,28.1c0.3-0.8,0.8-1.3,1.4-1.3c0.3,0.1,0.6,0.3,0.6,0.4v0.2
	l-0.7,0.1C381.2,27.8,380.8,28,380.2,28.1L380.2,28.1z M386.2,28.7c0.6,0,0.8,0.2,0.8,0.6l-0.2,0.6L387,30c1.3,0.1,1.9,0.3,1.9,0.7
	l-0.2,0.2c-0.6-0.6-1.4-0.8-2.3-0.7l0.2-0.3L386.2,28.7L386.2,28.7z M386.2,31.6h0.1l2,0.8c0,0.1-0.2,0.3-0.6,0.5l-1.2-0.1l0.1-0.6
	V32c0-0.1-0.1-0.2-0.3-0.2L386.2,31.6z M386.4,34.2l1.6,0.5v0.1l-1.1,0.3h-0.1V35h0.2v-0.2c0-0.2-0.3-0.3-0.7-0.3v-0.1L386.4,34.2z
	 M387,35.9h0.3l2,0.8v0.5l-0.1,0.1l-0.9-0.2l-0.2,0.2c-0.6-0.2-1-0.7-1.1-1.3V35.9z M386.4,43.8h0.6c0.5,0.6,0.8,0.9,1,0.8l-0.3,0.3
	c-0.5,0-1-0.1-1.4-0.4L386.4,43.8z M388.4,46l1.1,0.1l-0.2,0.5l-1.1-0.1L388.4,46z M386,48.1l0.3-0.3l1.9-0.1V48
	c-0.9,0.1-1.4,0.3-1.3,0.6C386.7,48.3,386.4,48.1,386,48.1L386,48.1z M382.1,58.2l-11.9,0.8c-0.2,0-0.3,0.1-0.3,0.3l0.1,0.9
	c0,0.8,0.3,1.4,0.8,2c-0.5,0-0.7,0.1-0.7,0.3l0.1,1.2l0.2,0.2l1-0.1c4.1-0.2,7.4-0.5,10.1-0.8l3,0.1c0.1-0.8,0.3-1.2,0.4-1.2h0.2
	v0.1l-0.2,0.3v0.5l0.2,0.2l1.4-0.1c0.8-0.1,1.1-0.3,1.1-0.8c0.5,0.3,1,0.6,1.6,0.6c0.4,0,0.8-0.3,0.9-0.8l0.3,0.3l-0.1,0.3v0.1
	l17-0.9l0.2-0.2l-0.1-0.7c0-0.5-0.3-0.8-0.8-1l0.6-0.6l-0.1-1.1l0.1-1.1c-4.3,0-8.4,0.1-12.3,0.3c-2.6,0.1-5.2,0.4-7.8,1
	C385.4,58.2,383.8,58.1,382.1,58.2L382.1,58.2z M385.1,58.6c1.2,0.4,1.9,0.7,1.9,0.9v0.1h-0.1l-0.9-0.3l-0.3,0.3
	c-0.2,0-0.3-0.3-0.5-0.9V58.6z M381.3,60.2c0-0.3,0.3-0.6,1.1-0.8h0.1c-0.1,0.4-0.4,0.8-0.8,1h-0.1L381.3,60.2z M374.8,60.9h0.1
	l0.1,0.8v0.2h-0.3c-0.3-0.3-0.6-0.6-0.8-0.6v-0.1h0.1l0.5,0.1C374.7,61.3,374.8,61.2,374.8,60.9L374.8,60.9z M382,62l0.3-0.3h0.2
	c0.8-0.1,1.2,0.1,1.2,0.3v0.1c0,0.1-0.2,0.3-0.6,0.3C382.4,62.3,382,62.1,382,62z M398.4,15.4l-0.1,0.1l0.2,1.4l0.1,2.6
	c0,0.6,0.1,0.8,0.4,0.9l2.6-0.1c0.6,0,1.3-0.2,1.8-0.7c0.1,0.3,0.2,0.6,0.3,0.6l11.2-0.6c0.5-0.6,1.3-1,2.1-1v0.2
	c-0.9,0.1-1.3,0.3-1.3,0.6l0.2,0.2l2.8-0.1l1.2-1.8h0.1l0.1,0.4c0,0.1-0.2,0.5-0.8,1v0.1l9.4-0.1c3.2-0.1,6.3-0.4,9.4-1l-0.6-3.7
	l0.1-0.8v-0.1l-36.2,2L398.4,15.4z M410.1,15.4l0.7-0.1c0.1,0,0.3,0.2,0.3,0.7c-0.2,0.6-0.3,0.8-0.6,0.8h-0.2l-0.1-0.1l0.1-0.6v-0.5
	L410.1,15.4z M422.2,16l0.8-0.3v0.1c1.1,0.3,1.6,0.6,1.7,1c-1.6-0.2-2.4-0.4-2.4-0.7V16z M415.8,21.3l-0.3,0.3
	c0.1,1.2-0.3,1.9-1.2,1.9h-0.1v-0.2c0.6-0.5,0.8-1,0.8-1.3v-0.1l-0.1-0.1c-2.3,0.1-4.4,1-6.1,2.5c-3.7,3.6-5.4,8.3-5.2,14.1l0.1,1.1
	c0.1,3.8,1.5,7.4,3.9,10.3c2.2,1.9,3.8,2.8,4.8,2.8h0.1l-0.1,0.3V53c0.6,0.8,3.5,1.2,8.8,1.4c2.5-0.1,4.1-0.8,4.8-1.9v-0.1h-0.6
	l-0.2-0.2V52l0.2-0.3v-0.2l-0.1-0.1l0.4-0.1c1.2,0,2.3,0.1,3.5,0.4c0.6-0.2,1.2-0.6,1.7-1.1c3.2-3.4,4.5-8.1,4.3-14.1
	c-0.1-2.3-0.6-4.7-1.5-6.8c-0.8-0.2-1.2-0.4-1.2-0.6l0.4-0.5v-0.3c-2.8-5-7.8-7.4-15.2-7L415.8,21.3z M417.3,22.5l0.9-0.1
	c0.3,0,0.6,0.1,0.7,0.3v0.2c-0.1,0.3-0.4,0.6-0.8,0.5l-0.8,0.1L417.3,22.5z M409.2,26.9c0.2-0.5,0.6-0.8,1.1-0.8h0.3
	c0,0.6-0.4,0.8-1.3,0.8H409.2z M410.2,38.2c-0.1-1.8,0.1-3.6,0.6-5.4c1.2-4.1,3.8-6.3,7.8-6.5h0.1c3.7-0.2,6.4,1.5,8.2,5.1l0.7-0.3
	h0.2l-0.1,1.4l0.8,6.2l0.1,0.7l-0.1,2.1c0,0.1,0.1,0.3,0.1,0.3c0.1,0.1,0.2,0.1,0.3,0.1v0.1c-1.2,0.6-1.9,1.5-1.8,2.7v0.3l0.1,0.1
	c-1.7,1.1-2.5,2.1-2.5,2.8l-0.5-0.2c-1.2,0.2-1.9,0.7-1.9,1.4c-3,0.1-6.3-0.8-10.1-2.8l0.2-0.8v-0.1l-1-1.9l-3.6,1.3h-0.1
	c0.6-0.8,1.5-1.3,2.5-1.5l0.8-0.1l0.1-0.1C410.7,41.8,410.4,40,410.2,38.2z M428.1,29.8c0-0.3,0.3-0.4,1.1-0.5l1.6,0.1v0.1l-1.6,0.6
	L428.1,29.8z M404.4,36.5c0.1-0.3,0.2-0.5,0.3-0.5h0.1c0.6,0.5,1,0.8,1.3,0.8v0.1l-0.1,0.1L404.4,36.5z M407.9,37.2h0.1l1,0.8
	l-0.2,0.2l-1.2,0.1l-0.1-0.1l0.1-0.3C407.8,37.5,407.9,37.3,407.9,37.2L407.9,37.2z M427.6,50.4c0-0.2,0.2-0.3,0.7-0.3h0.6l0.2,0.2
	v0.3h-0.2l-0.9-0.2h-0.2l-0.1,0.1V50.4z M408.5,56.8c-5.4,0.3-8,0.6-8,0.9l0.3,3.4l-0.1,1l0.5,0.2l13.1-0.8l0.8-0.1
	c0.3-0.5,0.8-0.8,1.3-1c0.4,0.1,0.6,0.2,0.6,0.3c0,0.2-0.1,0.3-0.4,0.3v0.2l4.6-0.3l18.4-0.8c0.6-0.1,0.8-0.2,0.8-0.4v-0.6l-0.3-2.5
	l0.1-1.4l-0.1-0.3l-0.1,0.1l-9.5,0.4c-1.4,0-2.8,0.3-4,1.1h-0.5l-0.8-0.9l-1.9,0.2L408.5,56.8z M415.2,59.1c0-0.2,0.3-0.3,1.1-0.5
	v0.2c-0.1,0.3-0.5,0.6-0.9,0.6h-0.2L415.2,59.1z"/>
</svg>
